<svg width="480" height="780" viewBox="0 0 480 780" fill="none" xmlns="http://www.w3.org/2000/svg">
<path fill-rule="evenodd" clip-rule="evenodd" d="M380.81 160.401C383.024 174.424 382.996 185.261 382.311 192.383C384.261 203.192 385.954 214.812 386.58 222.491C386.803 224.226 387.026 225.931 387.248 227.607C389.18 229.802 392.331 231.498 394.68 232.132C398.343 233.113 402.183 232.046 405.645 230.797C407.821 230.01 409.607 232.748 408.546 234.577C405.212 240.32 398.081 240.296 392.681 237.754C391.004 236.966 389.477 235.919 388.196 234.617C389.424 243.544 390.609 251.558 391.661 258.678L391.662 258.681V258.681V258.682C394.346 276.84 396.171 289.187 395.677 296.057C395.367 300.377 392.114 312.314 384.138 324.906C372.184 344.287 355.288 360.968 349.518 362.41C347.524 362.909 340.983 364.322 332.287 365.42C334.756 365.535 337.134 366.237 339.415 367.302L340.655 367.894L340.989 368.051C343.693 369.329 346.312 370.566 348.325 372.869C353.103 378.345 355.584 385.239 357.863 392.042L358.473 393.869C359.326 393.588 365.122 395.357 365.847 395.777C387.576 404.966 404.313 422.074 416.552 442.122C429.96 464.091 437.262 489.194 443.289 514.035C445.15 521.701 446.929 529.391 448.638 537.098C445.988 538.117 443.281 538.968 440.576 539.818L440.573 539.819C435.506 541.411 430.449 542.999 425.803 545.691C423.087 547.264 425.54 551.481 428.263 549.903C432.643 547.366 437.422 545.879 442.209 544.389L442.21 544.389C444.72 543.608 447.232 542.826 449.69 541.892C453.565 559.734 457.012 577.674 459.898 595.69C468.767 650.98 474.367 707.172 474.014 763.219C474.008 764.457 473.643 765.841 472.966 767.029C473.362 766.835 473.673 766.603 473.85 766.323C476.098 762.792 481.736 766.067 479.475 769.615L479.145 770.13C477.448 772.747 475.864 774.746 472.881 776.224C469.875 777.713 466.621 777.963 463.306 778.048C452.036 778.345 440.759 778.538 429.478 778.677C428.891 774.099 428.436 769.503 427.982 764.908C427.238 757.388 426.493 749.867 425.17 742.418C424.623 739.332 419.923 740.64 420.469 743.715C421.792 751.164 422.537 758.686 423.282 766.208L423.282 766.21L423.282 766.211L423.282 766.213L423.282 766.214L423.282 766.216C423.696 770.393 424.11 774.57 424.623 778.736C405.356 778.943 386.081 778.987 366.821 779.031C361.971 779.042 357.122 779.053 352.275 779.066C327.171 779.14 302.069 779.117 276.967 779.094H276.967H276.966H276.966H276.965H276.965C269.411 779.087 261.856 779.08 254.301 779.076L240.305 779.072C202.577 779.072 164.849 778.95 127.122 778.7L118.15 778.636C114.581 757.588 112.151 736.359 112.106 714.97C112.1 711.832 107.224 711.826 107.23 714.97C107.275 736.336 109.678 757.567 113.214 778.609C104.282 778.57 95.3531 778.602 86.4198 778.919L81.873 779.081C72.7758 779.393 63.6602 779.585 54.58 778.859C44.499 778.048 34.3028 776.194 25.264 771.445C21.1932 769.301 17.6088 766.562 14.5455 763.341C15.2797 762.913 16.0163 762.49 16.753 762.067L16.7758 762.054L16.7767 762.054L16.7773 762.053L16.7778 762.053C19.1573 760.686 21.5369 759.32 23.8342 757.816C26.4495 756.104 24.0097 751.879 21.373 753.604C19.0835 755.103 16.7113 756.466 14.3392 757.828L14.3279 757.835L14.3196 757.84C13.3307 758.408 12.3419 758.976 11.3591 759.554C8.93576 756.318 6.94699 752.728 5.43667 748.854C3.05355 742.738 2.13322 736.159 1.33479 729.684C0.390684 722.056 0 714.367 0 706.685C0 690.527 1.70048 674.418 4.07201 658.455C6.33985 643.163 9.33765 627.993 12.5064 612.872L12.9395 610.81C13.5536 607.891 14.162 604.97 14.7705 602.048L14.7708 602.047L14.7711 602.045L14.7728 602.037C17.2617 590.087 19.7514 578.134 22.6304 566.276C25.9442 552.626 29.7737 539.04 34.3375 525.716C36.0771 526.793 37.8513 527.811 39.6255 528.829L39.626 528.829L39.6264 528.83L39.6269 528.83L39.6276 528.83L39.6287 528.831L39.63 528.831C41.9975 530.19 44.3649 531.549 46.6499 533.045C49.2835 534.769 51.7294 530.547 49.111 528.833C46.8219 527.335 44.4511 525.972 42.0802 524.609L42.079 524.608L42.0782 524.608L42.0777 524.607L42.0772 524.607C40.0302 523.431 37.9831 522.254 35.9887 520.99C41.0919 506.723 47.082 492.79 54.2637 479.445C68.647 452.72 88.0295 428.812 112.854 411.167C125.281 402.337 138.915 395.113 153.233 389.856C167.83 384.491 182.957 381.552 198.426 380.345C198.868 380.31 199.116 380.719 199.098 381.097L199.091 381.168L199.701 381.266C199.926 379.735 200.389 378.253 201.273 376.894C202.989 374.252 206.016 372.417 208.761 370.754C209.234 370.468 209.699 370.186 210.147 369.907L210.869 369.457C214.495 367.209 218.321 364.994 222.538 364.206C222.685 364.181 222.775 364.333 222.678 364.449C220.637 366.79 218.18 368.725 215.728 370.655C214.839 371.356 213.95 372.056 213.082 372.774L212.333 373.399C212.015 373.66 211.683 373.926 211.343 374.197L211.339 374.201C208.793 376.235 205.853 378.585 205.764 381.863C205.69 384.678 206.034 387.566 206.375 390.431C206.564 392.021 206.753 393.603 206.868 395.162C207.191 399.514 207.416 403.862 207.532 408.228C207.953 423.868 207.447 439.513 206.063 455.092L212.182 450.994C221.705 444.617 231.259 438.258 241.011 432.287C246.912 428.672 253.543 425.58 260.613 425.721C262.593 425.757 264.83 426.044 266.976 426.654C265.651 425.398 264.358 424.096 263.069 422.799C262.112 421.835 261.157 420.873 260.193 419.935C256.468 416.306 252.744 412.679 249.021 409.057L238.283 398.594L227.542 388.131C227.159 387.757 226.769 387.387 226.379 387.017L226.378 387.016L226.378 387.016C223.373 384.164 220.354 381.299 220.666 376.766C220.83 374.44 222.396 372.442 223.976 370.426C225.172 368.9 226.375 367.365 226.987 365.669C227.188 365.102 227.371 364.541 227.542 363.986C228.969 359.241 228.972 354.335 228.976 349.432C228.978 346.494 228.98 343.558 229.289 340.659C214.923 329.165 213.472 327.701 204.829 310.417C204.726 310.242 204.624 310.067 204.522 309.893L204.515 309.881C203.731 308.542 202.961 307.225 201.984 306.237C201.589 308.981 200.832 311.242 199.06 313.015C197.69 314.384 196.316 314.633 195.032 313.82L193.868 314.053C193.299 314.533 192.633 314.689 191.848 314.457C190.466 314.696 188.033 313.136 186.042 308.117L183.288 308.668C183.257 308.675 183.225 308.682 183.193 308.687C181.101 309.049 177.851 307.792 176.293 294.483C171.164 287.72 168.427 278.046 170.211 267.143C171.627 258.484 178.865 252.718 181.75 251.276C182.105 251.058 182.452 250.85 182.792 250.651C173.838 236.154 169.716 193.283 168.768 173.383C169.634 170.909 170.54 168.506 171.484 166.171C157.502 176.556 156.154 170.498 157.228 166.171C151.459 167.324 149.054 163.766 148.574 161.843C137.034 173.383 130.302 166.651 128.379 161.843C91.452 173.383 96.6449 157.035 103.857 147.418C78.4699 149.726 83.6627 129.596 89.4326 119.242C77.3352 112.339 81.3988 102.544 85.1052 98.3747C83.9512 87.989 90.3942 80.5843 93.76 78.1802C90.298 62.0246 102.896 54.1392 109.627 52.2159C109.627 49.9079 112.512 47.4077 113.954 46.446C119.724 34.9063 128.379 34.9063 131.264 34.9063C133.572 34.9063 135.111 30.0981 135.591 27.694C144.373 16.9612 147.874 18.7681 151.453 20.6149C153.165 21.4983 154.895 22.3909 157.228 21.9241C162.998 20.7702 167.326 22.405 168.768 23.3666C178 11.8269 194.732 9.90362 201.945 10.3844C206.561 -6.92512 214.446 1.24883 217.812 7.4995C255.893 -0.578295 251.95 26.2515 245.219 40.6762C252.142 38.3682 252.912 46.446 252.431 50.7734C266.279 47.3115 262.047 57.0241 258.201 62.3131C263.971 78.4687 250.027 84.4309 242.334 85.3925C248.104 87.7005 249.152 92.124 248.955 94.0473C258.717 91.5054 267.473 90.7819 274.068 91.1624C297.147 85.3926 310.61 90.6816 314.457 94.0473C335.228 94.0473 338.498 100.779 337.536 104.145C379.079 120.3 377.925 129.147 372.155 131.551C373.598 132.032 377.348 138.475 380.81 160.401ZM183.293 300.487C183.737 301.989 184.235 303.17 184.76 304.098C184.51 303.119 184.276 302.057 184.064 300.908C183.809 300.775 183.552 300.635 183.293 300.487ZM188.206 293.202C177.348 285.494 175.03 269.577 184.635 258.488C192.266 251.091 204.83 254.161 204.83 254.161C211.49 256.057 217.812 265.701 217.812 265.701C219.058 267.94 219.891 270.208 220.601 272.139C221.579 274.799 222.321 276.818 223.582 277.24C225.757 277.968 224.174 264.714 222.139 259.931C221.675 258.839 221.091 257.636 220.269 256.414C219.802 250.56 225.752 246.369 227.909 245.506C233.198 243.102 241.757 231.658 239.449 205.117C237.001 176.961 237.669 176.856 244.981 175.705C246.285 175.5 247.8 175.262 249.546 174.825C250.867 174.495 252.547 173.995 254.595 173.385L254.595 173.385C270.314 168.703 307.702 157.569 370.674 167.379C370.068 168.797 369.945 170.788 370.713 173.383C375.04 189.25 376.857 205.117 378.368 222.491C380.29 244.602 383.939 266.875 386.159 280.427L386.159 280.427C387.27 287.209 388.023 291.807 388.023 293.107C388.023 297.005 386.573 302.272 378.368 319.072C370.162 335.872 353.846 353.755 346.633 356.64C342.761 358.189 329.108 359.492 314.457 359.461C301.818 359.434 286.05 356.64 278.838 353.755C271.626 350.87 274.511 357.376 275.953 359.893C277.396 362.41 301.399 367.148 314.899 366.786C320.03 366.648 324.985 366.255 329.478 365.754C329.193 366.099 329.238 366.669 329.796 366.834C333.014 367.79 336.385 369.254 338.738 371.747C339.446 372.497 339.858 373.352 340.275 374.219C340.558 374.806 340.843 375.398 341.224 375.967L341.352 376.159L341.516 376.403C342.328 377.616 343.138 378.828 343.857 380.107C346.812 385.351 348.603 391.232 350.363 397.014C350.609 397.82 350.853 398.624 351.101 399.424L351.494 400.686C353.524 407.128 355.573 413.566 357.627 420.002L361.739 432.873C360.661 432.376 359.529 431.955 358.412 431.539C357.706 431.276 357.005 431.015 356.327 430.739L346.515 426.721C345.398 426.263 344.242 425.741 343.059 425.206C338.371 423.086 333.237 420.765 328.279 421.495C323.21 422.246 318.335 425.69 314.166 428.8L312.332 430.176C307.78 433.628 303.429 437.581 300.205 442.33C299.9 442.787 300.34 443.373 300.815 443.373C300.925 443.373 301.04 443.342 301.144 443.269C302.67 442.222 304.173 441.147 305.675 440.073L305.679 440.07L305.68 440.069C308.605 437.978 311.527 435.888 314.614 434.007C314.844 433.868 315.077 433.724 315.314 433.578C315.496 433.466 315.681 433.352 315.868 433.237C319.935 430.725 324.972 427.614 329.626 427.641C331.861 427.656 333.981 428.47 336.027 429.345C336.027 429.345 336.624 429.684 336.84 430.176C337.055 430.667 337.055 430.864 336.94 431.428C336.842 431.907 332.062 434.683 330.395 435.651C330.097 435.825 329.898 435.94 329.844 435.974L329.705 436.056C328.12 436.879 326.481 437.604 324.823 438.263C321.447 439.604 317.966 440.714 314.449 441.599C309.975 442.72 305.423 443.415 300.839 443.714C298.115 443.897 295.378 443.934 292.635 443.842C279.178 443.379 265.983 440.154 253.786 434.538C254.926 434.16 256.096 433.86 257.291 433.659C259.894 433.221 262.624 433.379 265.135 434.196C266.471 434.628 267.671 435.314 268.875 436.001C269.913 436.594 270.953 437.188 272.084 437.623C274.235 438.458 276.258 436.001 275.697 434.001C275.423 433.019 274.99 432.135 274.43 431.355C275.863 431.196 277.276 430.428 278.062 429.373C279.653 427.239 279.288 424.794 277.672 422.801C275.582 420.226 273.061 417.907 270.57 415.616L270.569 415.615L270.567 415.613L270.56 415.607C269.502 414.634 268.45 413.666 267.439 412.685L257.535 403.082C254.498 400.14 251.461 397.197 248.425 394.254C244.714 390.657 241.004 387.061 237.293 383.467L233.846 380.128L232.125 378.454C232 378.333 231.832 378.194 231.651 378.045L231.65 378.044L231.65 378.044C231.259 377.721 230.811 377.351 230.619 377.01C230.717 376.546 230.821 376.077 230.93 375.613C231.327 373.591 232.14 371.673 232.953 369.756C233.888 367.552 234.822 365.35 235.122 362.992C235.901 356.912 234.744 350.608 233.598 344.36L233.597 344.357C233.496 343.805 233.395 343.254 233.295 342.703C236.239 344.101 237.959 344.33 240.891 342.151C242.334 339.266 238.006 336.381 238.006 336.381C238.006 336.381 214.006 318.188 207.715 297.435C205.954 297.662 204.261 297.753 202.64 297.719C202.787 295.748 203.001 293.634 203.387 291.378C199.842 288.406 198.428 288.31 197.618 292.82L197.606 293.019L197.606 293.02C197.524 294.408 197.443 295.785 197.356 297.133C196.056 296.862 194.816 296.503 193.639 296.065C193.896 293.282 194.194 290.192 194.733 287.05C191.438 283.701 189.786 282.559 188.963 288.493C188.689 290.087 188.442 291.668 188.206 293.202ZM191.129 306.941C191.88 306.405 192.363 305.242 192.712 303.627C193.737 303.807 194.816 303.975 195.971 304.155C196.232 304.195 196.498 304.237 196.767 304.279C196.308 308.404 195.632 311.717 194.464 313.385C193.216 312.262 192.073 310.095 191.129 306.941ZM242.334 96.0113L235.121 91.1624C225.505 92.124 201.368 100.683 181.75 127.224C179.827 130.59 175.98 138.764 175.98 144.534L178.223 151.746C195.517 119.493 220.641 103.239 242.334 96.0113ZM188.222 264.259C193.614 264.573 198.182 265.4 203.086 267.76L203.508 267.966C207.841 270.118 215.009 274.093 214.405 279.794C214.235 281.416 213.058 283.124 211.206 282.996C207.446 282.738 204.88 279.863 202.405 277.091L202.405 277.091C201.538 276.119 200.682 275.16 199.79 274.331C196.322 271.112 192.061 267.801 187.862 265.588C187.268 265.276 187.502 264.29 188.148 264.258L188.222 264.259ZM371.181 742.747C368.96 740.524 365.512 743.972 367.734 746.196L368.909 747.366C370.871 749.325 372.817 751.344 374.175 753.765L374.374 754.131C375.838 756.909 380.048 754.447 378.584 751.669C376.882 748.439 374.233 745.795 371.665 743.23L371.419 742.984L371.181 742.747ZM276.02 742.12C268.949 740.769 262.134 740.769 255.064 742.12C251.985 742.708 253.289 747.41 256.36 746.824C262.544 745.642 268.539 745.642 274.723 746.824C277.79 747.409 279.103 742.709 276.02 742.12ZM180.53 692.951C177.487 692.179 176.189 696.883 179.234 697.654L180.733 698.03C185.829 699.29 190.683 700.229 195.977 699.06C198.999 698.391 197.777 693.802 194.8 694.332L194.68 694.356C190.049 695.379 185.763 694.285 181.305 693.148C181.047 693.082 180.789 693.016 180.53 692.951ZM350.118 661.267C347.866 659.078 344.415 662.523 346.67 664.716C349.484 667.454 352.8 669.534 356.819 669.645C359.911 669.732 359.955 664.999 356.957 664.774L356.819 664.767C354.126 664.692 351.98 663.079 350.118 661.267ZM63.1537 648.24C65.961 646.836 63.4944 642.627 60.6932 644.028L43.8419 652.457C41.0346 653.861 43.5012 658.07 46.3025 656.669L63.1537 648.24ZM396.139 649.315C393 649.226 393.002 654.104 396.139 654.193C399.088 654.275 402.11 655.393 404.738 656.669C407.549 658.034 410.024 653.83 407.199 652.457C403.764 650.788 399.993 649.422 396.139 649.315ZM238.687 625.763C241.268 624.009 238.831 619.78 236.226 621.551C234.286 622.87 232.446 624.319 230.606 625.768C229.074 626.974 227.542 628.181 225.953 629.311L224.992 629.98C222.411 631.734 224.848 635.962 227.453 634.192C229.39 632.875 231.228 631.428 233.066 629.98C234.907 628.531 236.747 627.082 238.687 625.763ZM420.011 590.312C416.873 590.311 416.869 595.188 420.011 595.19L420.606 595.188L420.983 595.185H420.983C423.459 595.169 426.042 595.152 428.334 596.137L428.61 596.262C431.434 597.592 433.911 593.388 431.072 592.05C427.541 590.387 423.849 590.314 420.011 590.312ZM149.226 586.827L149.636 586.674C152.567 585.621 151.303 580.905 148.339 581.971C144.96 583.185 142.148 585.217 139.302 587.273L139.301 587.274C138.386 587.935 137.466 588.6 136.524 589.24C133.942 590.994 136.379 595.222 138.984 593.453C139.952 592.795 140.901 592.086 141.852 591.376C144.182 589.635 146.53 587.882 149.226 586.827ZM332.115 574.137L332.773 573.785C335.564 572.348 333.1 568.138 330.312 569.573C329.095 570.199 327.949 570.94 326.802 571.68L326.801 571.68L326.801 571.681L326.8 571.681L326.799 571.681L326.798 571.682C325.861 572.287 324.924 572.892 323.948 573.435L323.29 573.787C320.499 575.224 322.963 579.434 325.751 578C326.967 577.373 328.113 576.634 329.259 575.894L329.26 575.893L329.261 575.892L329.263 575.892L329.264 575.891L329.265 575.89C330.202 575.285 331.14 574.68 332.115 574.137ZM257.938 526.89L257.436 526.405C255.192 524.207 251.741 527.654 253.988 529.855C259.599 535.348 266.232 539.519 272.924 543.552L274.141 544.284C276.838 545.903 279.293 541.687 276.603 540.072L274.816 538.998C268.867 535.408 262.986 531.703 257.938 526.89ZM123.008 522.337C124.898 519.881 120.787 517.477 118.865 519.79L118.797 519.875C116.829 522.431 114.494 524.745 112.053 526.856L111.594 527.25C111.37 527.441 111.117 527.665 110.843 527.909C109.339 529.245 107.182 531.163 105.455 531.31C102.352 531.574 102.324 536.454 105.455 536.188C108.542 535.925 111.208 533.795 113.555 531.92L113.718 531.79C117.191 529.017 120.297 525.856 123.008 522.337ZM382.415 504.567C384.681 502.438 381.334 499.049 379.048 501.046L378.968 501.119C375.219 504.642 370.015 505.882 365.088 507.057C364.451 507.209 363.817 507.36 363.192 507.515C360.148 508.27 361.438 512.974 364.489 512.219L366.972 511.605C372.542 510.215 378.131 508.595 382.415 504.567ZM285.85 473.8C282.807 473.026 281.509 477.729 284.554 478.503C289.726 479.818 294.624 481.517 299.418 483.877C302.224 485.257 304.697 481.052 301.879 479.665C296.721 477.126 291.418 475.215 285.85 473.8ZM335.659 370.973C335.586 370.754 335.818 370.504 336.043 370.583C341.457 372.602 338.667 379.641 336.961 383.947L336.906 384.085L336.598 384.869C333.934 391.747 330.211 398.442 326.152 404.6C321.904 411.045 317.186 417.215 312.079 423.008C309.863 425.523 307.565 427.965 305.189 430.335L304.295 431.22C303.895 431.613 303.476 432.055 303.039 432.518C300.846 434.833 298.178 437.651 295.073 437.269C291.063 436.787 288.826 432.501 291.751 429.245C293.014 427.837 294.575 426.604 296.125 425.379C297.112 424.599 298.094 423.823 298.992 423.008C301.284 420.934 303.503 418.795 305.666 416.593C310.092 412.075 314.285 407.301 318.119 402.271C321.826 397.406 325.375 392.407 328.601 387.21L329.242 386.168C329.768 385.302 330.442 384.348 331.159 383.333C333.788 379.612 337.001 375.065 335.659 370.973ZM141.793 422.068C139.195 420.291 136.753 424.516 139.332 426.279C141.037 427.445 142.669 428.7 144.298 429.953L144.298 429.953C147.197 432.183 150.089 434.406 153.374 436.113C156.122 437.541 158.565 433.449 155.933 431.954L155.835 431.901C152.554 430.196 149.661 427.972 146.762 425.743L146.762 425.743L146.761 425.742L146.761 425.742L146.761 425.742L146.761 425.742C145.13 424.489 143.498 423.233 141.793 422.068ZM282.723 311.892C282.787 305.174 288.606 304.015 294.135 304.911C303.493 306.426 312.887 307.491 322.372 307.684L324.007 307.712C324.27 307.328 324.71 307.037 325.308 306.973C329.126 306.56 333.005 306.495 336.867 306.431H336.868C338.323 306.407 339.777 306.383 341.224 306.34C342.521 306.302 343.829 306.238 345.141 306.174H345.141C348.493 306.01 351.873 305.845 355.187 306.106L355.554 306.138C361.19 306.684 367.138 309.561 366.457 316.178C365.831 322.305 359.976 327.73 355.301 331.134C354.355 331.817 353.389 332.456 352.394 333.039C352.082 333.437 351.627 333.715 351.101 333.771C346.497 336.259 341.417 337.731 336.158 338.221C325.009 339.259 312.048 338.136 301.34 333.303C297.859 331.731 294.611 329.769 291.74 327.36C287.314 323.642 282.674 318.005 282.723 311.892ZM326.65 325.213C322.181 325.078 317.719 325.704 313.462 327.083C311.682 327.657 309.999 328.559 308.322 329.458L308.322 329.458C307.281 330.016 306.242 330.573 305.184 331.049C314.5 334.603 325.322 335.378 334.879 334.731C339.071 334.447 343.136 333.48 346.923 331.817L346.877 331.784C346.302 331.368 345.72 330.947 345.111 330.58C343.221 329.435 341.245 328.461 339.185 327.686C335.171 326.18 330.935 325.348 326.65 325.213ZM344.258 277.795C347.047 270.838 338.216 266.33 332.863 264.675C331.421 264.125 331.504 261.44 334.166 261.379C358.339 260.828 358.471 298.362 322.536 284.14C318.187 282.24 320.529 275.935 325.026 277.425L325.128 277.467L325.302 277.539C325.452 277.601 325.607 277.666 325.765 277.732L325.767 277.732C330.99 279.906 340.546 283.885 344.258 277.795ZM373.385 258.007C375.719 248.921 369.404 237.833 359.252 238.308C354.912 238.512 351.125 240.988 349.611 245.119C348.417 248.379 348.959 252.165 352.085 254.068C352.686 254.434 353.451 253.959 353.46 253.279C353.512 249.446 355.926 245.282 360.25 246.164C365.349 247.203 365.814 252.148 365.577 256.44L365.546 256.945C365.429 258.678 366.869 260.35 368.476 260.795C368.676 260.85 368.893 260.877 369.11 260.898L369.536 260.937C371.228 261.114 372.981 259.575 373.385 258.007ZM302.853 248.694C299.275 242.16 291.305 238.221 283.917 240.687C279.891 242.03 276.701 245.441 275.06 249.277C273.808 252.2 273.178 257.307 276.688 259.004C277.153 259.229 277.619 259.175 278.007 258.834C279.354 257.653 280.129 256.126 280.893 254.621C282.005 252.431 283.095 250.286 285.887 249.311C289.92 247.903 294.347 250.558 295.438 254.581L295.479 254.722C296.439 257.835 300.767 259.127 303.078 256.599C304.555 254.982 304.935 253.639 305.186 251.507C305.361 250.025 304.108 249.058 302.853 248.694ZM289.038 211.416L287.791 211.893C283.719 213.462 279.691 215.339 276.165 217.937C272.512 220.629 269.243 223.63 266.545 227.288C264.316 230.308 261.817 234.118 262.716 237.99C262.758 238.168 262.942 238.237 263.103 238.21C265.914 237.741 268.391 235.839 270.775 234.008L270.776 234.008C271.749 233.26 272.706 232.525 273.665 231.904C277.144 229.648 280.696 227.629 284.523 226.009C287.92 224.571 291.631 223.563 295.28 223.032C295.632 222.981 295.984 222.935 296.336 222.888C299.198 222.512 302.014 222.141 303.663 219.321C305.192 216.708 304.784 213.552 302.642 211.41C299.171 207.937 293.308 209.802 289.038 211.416ZM366.626 221.191L366.246 221.258C365.133 221.462 364.026 221.68 362.92 221.898C360.004 222.472 357.098 223.045 354.122 223.354C349.922 223.79 345.695 224.107 341.475 224.228C340.458 224.257 339.359 224.222 338.229 224.186C335.331 224.095 332.23 223.997 329.782 224.956C328.944 225.284 328.539 226.3 329.24 227.01C331.095 228.889 333.967 229.705 336.554 230.441C336.686 230.478 336.817 230.516 336.948 230.553L338.427 230.982C341.642 231.886 344.973 232.459 348.274 232.927C355.489 233.95 363.441 234.173 370.621 232.822C372.747 232.422 374.212 230.483 374.868 228.574C375.578 226.504 375.004 224.476 373.514 222.911C371.562 220.859 369.216 220.76 366.626 221.191Z" fill="black"/>
</svg>
