<svg width="250" height="250" viewBox="0 0 250 250" fill="none" xmlns="http://www.w3.org/2000/svg">
<mask id="mask0_17_4509" style="mask-type:alpha" maskUnits="userSpaceOnUse" x="0" y="0" width="250" height="250">
<circle cx="125" cy="125" r="125" fill="#F8F8F8"/>
</mask>
<g mask="url(#mask0_17_4509)">
<circle cx="125" cy="125" r="124" fill="#F8F8F8" stroke="#D9D9D9" stroke-width="2"/>
<path fill-rule="evenodd" clip-rule="evenodd" d="M101.243 113.645C103.112 113.753 104.696 114.04 106.396 114.858L106.542 114.93C108.044 115.676 110.528 117.054 110.319 119.03C110.26 119.592 109.852 120.184 109.21 120.139C107.45 120.019 106.445 118.244 105.253 117.136C104.051 116.02 102.574 114.872 101.118 114.105C100.913 113.997 100.994 113.655 101.218 113.644L101.243 113.645Z" fill="#0C0C0D"/>
<path d="M113.5 105.644C112.667 105.978 110.5 107.144 110.5 109.144C110.5 111.144 112.5 111.644 112.5 111.644C111.7 109.244 114.167 107.478 115 107.144C116.833 106.311 119.8 102.344 119 93.1444C118 81.6444 118.5 83.6444 122.5 82.6444C126.5 81.6444 140 76.1444 165 80.1444C165.789 78.6881 166.386 77.8177 163.5 77.6444C138.5 73.6444 125.5 79.6444 121.5 80.6444C117.5 81.6444 116 80.6444 117 92.1444C117.8 101.344 115.333 104.811 113.5 105.644Z" fill="#0C0C0D"/>
<path d="M156.153 145.667C158.653 144.667 164.309 138.468 167.153 132.644C169.998 126.821 170.5 124.996 170.5 123.644C170.5 122.293 168.153 110.667 167.153 99.1667C166.63 93.1444 166 87.6444 164.5 82.1444C163.853 79.9587 165.03 79.0078 166 79.1444C166.97 79.281 169.493 92.9498 170 99.1667C171.727 112.594 173.42 120.947 173.153 124.667C173.046 126.164 171.918 130.302 169.153 134.667C165.01 141.385 159.153 147.167 157.153 147.667C156.049 147.943 150.922 149.028 145.153 149.183C140.474 149.309 132.153 147.667 131.653 146.794C131.153 145.922 130.153 143.667 132.653 144.667C135.153 145.667 140.619 146.635 145 146.644C150.079 146.655 154.811 146.204 156.153 145.667Z" fill="#0C0C0D"/>
<path d="M100 111.644C102.645 109.08 107 110.144 107 110.144C109.309 110.802 111.5 114.144 111.5 114.144C112.527 115.99 112.746 117.892 113.5 118.144C114.254 118.397 113.705 113.802 113 112.144C112.295 110.486 110.795 108.084 105 107.644C102.588 107.462 101.255 107.762 98.9999 109.144C97.9999 109.644 95.491 111.643 95 114.644C94.285 119.015 95.6655 122.815 98 125.144C100.5 127.144 102 127.144 105 127.644C105.986 127.809 106.465 128.739 107 129.644C110 135.644 110.5 136.144 115.5 140.144C117.5 141.144 118.103 141.682 119.5 140.644C120 139.644 118.5 138.644 118.5 138.644C118.5 138.644 110.181 132.338 108 125.144C99.0315 126.304 95.174 117.216 100 111.644Z" fill="#0C0C0D"/>
<path d="M99.5 85.5448C98.7 95.1448 100.5 104.878 101.5 108.545H103C102 104.878 100.2 95.1448 101 85.5448H99.5Z" fill="#0C0C0D" stroke="#0C0C0D"/>
<path fill-rule="evenodd" clip-rule="evenodd" d="M115.878 138.096C115.981 137.757 116.427 137.853 116.461 138.174C116.797 141.361 117.906 144.702 117.5 147.869C117.306 149.397 116.343 150.737 116.047 152.243C116.009 152.404 115.973 152.567 115.939 152.727C116.037 152.901 116.324 153.095 116.461 153.228L117.058 153.808L118.253 154.966C120.592 157.231 122.93 159.499 125.269 161.765L128.702 165.094C129.879 166.235 131.216 167.328 132.249 168.6C132.809 169.291 132.936 170.138 132.385 170.878C132.112 171.244 131.622 171.51 131.125 171.565C131.32 171.835 131.47 172.142 131.565 172.482C131.759 173.176 131.058 174.027 130.312 173.738C129.465 173.412 128.765 172.829 127.904 172.55C127.033 172.267 126.087 172.212 125.185 172.364C124.77 172.434 124.365 172.537 123.97 172.668C128.197 174.615 132.771 175.733 137.436 175.893C138.387 175.925 139.335 175.912 140.28 175.849C141.869 175.745 143.446 175.505 144.997 175.116C146.216 174.809 147.423 174.424 148.593 173.959C149.168 173.731 149.736 173.48 150.285 173.195L150.334 173.166C150.458 173.088 152.753 171.786 152.793 171.59C152.833 171.395 152.833 171.327 152.759 171.156C152.684 170.986 152.477 170.868 152.477 170.868C151.767 170.565 151.033 170.283 150.258 170.278C148.475 170.267 146.529 171.586 145.054 172.484C143.434 173.471 141.944 174.625 140.385 175.695C140.349 175.72 140.309 175.731 140.271 175.731C140.107 175.731 139.954 175.528 140.06 175.369C141.177 173.723 142.686 172.353 144.263 171.156L144.899 170.679C146.344 169.601 148.034 168.408 149.791 168.147C151.944 167.83 154.192 169.173 156.112 169.959L159.513 171.351C160.12 171.599 160.779 171.81 161.389 172.091L159.964 167.63C159.252 165.399 158.542 163.167 157.838 160.934L157.702 160.497C157.001 158.23 156.358 155.872 155.191 153.801C154.912 153.304 154.593 152.837 154.278 152.366C153.951 151.878 153.828 151.339 153.416 150.903C152.601 150.039 151.432 149.532 150.317 149.2C150.044 149.12 150.125 148.76 150.381 148.733C151.525 148.612 152.617 148.879 153.651 149.362L154.081 149.568C155.059 150.031 156.013 150.461 156.739 151.292C158.396 153.19 159.256 155.58 160.046 157.938L160.257 158.571C160.553 158.474 162.562 159.087 162.813 159.233C170.345 162.418 176.147 168.348 180.389 175.297C185.037 182.912 187.568 191.614 189.657 200.224C190.302 202.882 190.919 205.547 191.511 208.219C188.872 209.234 186.066 209.766 183.596 211.197C182.654 211.742 183.505 213.204 184.448 212.657C186.763 211.317 189.399 210.822 191.876 209.88C193.219 216.065 194.414 222.284 195.414 228.528C198.488 247.693 200.43 267.171 200.307 286.599C200.305 287.028 200.178 287.507 199.944 287.92C200.081 287.852 200.189 287.772 200.25 287.675C201.03 286.451 202.984 287.586 202.2 288.816L202.086 288.994C201.497 289.901 200.948 290.595 199.914 291.107C198.873 291.623 197.744 291.709 196.595 291.739C192.689 291.842 188.78 291.909 184.87 291.957C184.333 287.773 184.115 283.548 183.376 279.389C183.187 278.319 181.557 278.772 181.747 279.838C182.46 283.855 182.689 287.933 183.187 291.977C174.827 292.067 166.462 292.068 158.109 292.092C146.788 292.125 135.469 292.102 124.148 292.095L119.297 292.094C106.219 292.094 93.1416 292.052 80.0643 291.965L76.9542 291.943C75.717 284.647 74.8749 277.289 74.8593 269.874C74.857 268.787 73.1668 268.784 73.1692 269.874C73.1848 277.28 74.0176 284.639 75.2434 291.933C72.147 291.92 69.0522 291.931 65.9556 292.041L64.3796 292.097C61.2262 292.205 58.0665 292.272 54.919 292.02C51.4246 291.739 47.8904 291.096 44.7573 289.45C43.3462 288.707 42.1037 287.758 41.0419 286.641C42.1213 286.013 43.2161 285.41 44.2616 284.726C45.1682 284.132 44.3225 282.668 43.4085 283.266C42.2818 284.004 41.0975 284.646 39.9374 285.328C39.0974 284.207 38.408 282.962 37.8845 281.62C37.0585 279.499 36.7394 277.219 36.4627 274.974C36.1354 272.331 36 269.665 36 267.003C36 261.402 36.5894 255.818 37.4115 250.285C38.1976 244.984 39.2367 239.726 40.3351 234.484L40.4852 233.77C41.569 228.617 42.6021 223.449 43.8444 218.332C44.993 213.601 46.3204 208.892 47.9024 204.273C49.3105 205.144 50.7841 205.906 52.1702 206.814C53.0831 207.411 53.9309 205.948 53.0233 205.354C51.5444 204.386 49.9671 203.581 48.4747 202.635C50.2437 197.69 52.32 192.86 54.8094 188.234C59.7951 178.971 66.5136 170.684 75.1185 164.567C79.4261 161.507 84.1521 159.002 89.115 157.18C94.1749 155.321 99.4183 154.302 104.78 153.884C104.933 153.871 105.019 154.013 105.013 154.144L105.011 154.169L105.222 154.203C105.3 153.672 105.461 153.158 105.767 152.687C106.464 151.614 107.787 150.925 108.843 150.265L109.093 150.109C110.35 149.33 111.677 148.562 113.138 148.289C113.189 148.28 113.22 148.333 113.187 148.374C112.223 149.479 110.99 150.324 109.86 151.259L109.601 151.476C108.665 152.247 107.359 153.121 107.324 154.41C107.284 155.927 107.594 157.506 107.707 159.019C107.819 160.528 107.896 162.035 107.937 163.548C108.083 168.97 107.907 174.393 107.427 179.793L109.548 178.372C112.849 176.162 116.161 173.958 119.542 171.888C121.587 170.635 123.885 169.563 126.336 169.612C127.023 169.625 127.798 169.724 128.542 169.936C127.741 169.177 126.974 168.37 126.19 167.607C124.899 166.349 123.608 165.091 122.318 163.836L118.596 160.209L114.873 156.582C113.719 155.456 112.367 154.418 112.489 152.643C112.589 151.227 114.188 150.162 114.68 148.796C114.75 148.6 114.813 148.405 114.873 148.213C115.866 144.912 114.87 141.384 115.878 138.096ZM164.662 279.503C163.892 278.732 162.697 279.927 163.467 280.698L163.875 281.104C164.555 281.783 165.229 282.483 165.7 283.322L165.769 283.449C166.276 284.412 167.736 283.558 167.228 282.595C166.601 281.405 165.603 280.444 164.662 279.503ZM131.677 279.285C129.226 278.817 126.863 278.817 124.413 279.285C123.345 279.489 123.797 281.119 124.862 280.916C127.005 280.506 129.083 280.506 131.227 280.916C132.29 281.119 132.745 279.49 131.677 279.285ZM98.5768 262.242C97.5222 261.974 97.0722 263.605 98.1277 263.872L98.6473 264.003C100.414 264.439 102.096 264.765 103.931 264.359C104.979 264.128 104.555 262.537 103.523 262.72L103.482 262.729C101.784 263.104 100.22 262.658 98.5768 262.242ZM157.361 251.259C156.581 250.5 155.384 251.695 156.166 252.455C157.141 253.404 158.291 254.125 159.684 254.163C160.756 254.193 160.771 252.553 159.732 252.475L159.684 252.473C158.75 252.447 158.006 251.887 157.361 251.259ZM57.8909 246.744C58.864 246.257 58.009 244.798 57.038 245.284L51.1969 248.205V248.205C50.2238 248.692 51.0788 250.151 52.0498 249.665L57.8909 246.744V246.744ZM173.313 247.116C172.225 247.086 172.226 248.776 173.313 248.807C174.335 248.836 175.383 249.223 176.294 249.665C177.268 250.139 178.126 248.681 177.147 248.205C175.956 247.627 174.649 247.153 173.313 247.116ZM118.736 238.953C119.63 238.345 118.786 236.879 117.883 237.493C116.651 238.33 115.534 239.32 114.322 240.182L113.989 240.414C113.094 241.022 113.939 242.488 114.842 241.874C116.186 240.961 117.392 239.866 118.736 238.953ZM181.588 226.664C180.5 226.664 180.499 228.354 181.588 228.355L181.794 228.354C182.692 228.349 183.638 228.324 184.473 228.683L184.569 228.726C185.547 229.188 186.406 227.73 185.422 227.267C184.198 226.69 182.918 226.665 181.588 226.664ZM87.7261 225.456L87.8681 225.403C88.8843 225.038 88.4461 223.403 87.4187 223.773C85.8706 224.329 84.6661 225.38 83.3231 226.293C82.4282 226.901 83.2728 228.366 84.176 227.753C85.3332 226.967 86.4098 225.971 87.7261 225.456V225.456ZM151.121 221.058L151.349 220.935C152.316 220.437 151.462 218.978 150.496 219.475C149.729 219.87 149.042 220.396 148.29 220.814L148.062 220.936C147.094 221.434 147.948 222.894 148.915 222.396C149.682 222.001 150.368 221.476 151.121 221.058V221.058ZM125.409 204.68L125.235 204.512C124.457 203.75 123.261 204.945 124.04 205.708C125.985 207.612 128.284 209.058 130.604 210.456L131.025 210.709C131.96 211.271 132.811 209.809 131.879 209.249L131.259 208.877C129.197 207.633 127.159 206.349 125.409 204.68V204.68ZM78.638 203.102C79.2934 202.251 77.8682 201.417 77.2021 202.219L77.1786 202.249C76.4964 203.134 75.6869 203.937 74.8409 204.669L74.6818 204.805C74.1782 205.234 73.2615 206.152 72.5539 206.212C71.4782 206.304 71.4685 207.996 72.5539 207.903C73.6487 207.81 74.5908 207.039 75.4179 206.379C76.6217 205.418 77.6985 204.322 78.638 203.102ZM168.556 196.943C169.342 196.205 168.182 195.03 167.389 195.722L167.361 195.747C165.894 197.126 163.782 197.497 161.893 197.964C160.838 198.226 161.285 199.857 162.342 199.595L163.203 199.382C165.134 198.9 167.071 198.339 168.556 196.943ZM135.084 186.278C134.029 186.009 133.579 187.64 134.635 187.908C136.427 188.364 138.125 188.953 139.787 189.771C140.76 190.249 141.617 188.792 140.64 188.311C138.852 187.431 137.014 186.768 135.084 186.278ZM152.349 150.635C152.324 150.559 152.404 150.472 152.482 150.5C154.379 151.207 153.371 153.692 152.781 155.18L152.675 155.452C151.751 157.836 150.461 160.156 149.054 162.291C147.581 164.525 145.946 166.664 144.176 168.672C143.407 169.543 142.611 170.39 141.787 171.212L141.477 171.518C140.645 172.337 139.572 173.774 138.281 173.615C136.891 173.448 136.115 171.962 137.13 170.834C137.846 170.035 138.839 169.399 139.639 168.672C140.434 167.953 141.203 167.211 141.953 166.448C143.487 164.882 144.94 163.227 146.269 161.484C147.554 159.797 148.784 158.065 149.903 156.263L150.125 155.902C150.976 154.501 152.941 152.44 152.349 150.635ZM85.1495 168.346C84.2491 167.73 83.4028 169.195 84.2964 169.806C85.9397 170.929 87.3854 172.29 89.164 173.214C90.1163 173.709 90.9633 172.291 90.0509 171.773L90.0171 171.754C88.2397 170.831 86.7919 169.469 85.1495 168.346Z" fill="#0C0C0D"/>
<path fill-rule="evenodd" clip-rule="evenodd" d="M151.073 124.947C151.397 124.384 152.143 123.861 152.826 123.941C155.885 124.3 155.88 128.01 154.698 130.176C153.651 132.097 151.484 133.224 149.314 133.059C147.035 132.886 145.094 131.546 144.239 129.413C143.674 128.002 143.413 125.398 144.916 124.45C144.944 124.432 144.99 124.437 145.012 124.462C145.733 125.301 145.761 126.561 146.393 127.495C146.979 128.363 147.891 129.081 148.959 129.191C149.757 129.274 150.564 128.986 150.876 128.27C151.045 127.882 151.026 127.672 150.962 127.405L150.905 127.173C150.705 126.361 150.615 125.743 151.073 124.947ZM151.38 109.145C153.235 109.718 156.297 111.281 155.33 113.692C153.98 115.907 150.399 114.28 148.664 113.564C147.105 113.047 146.293 115.233 147.8 115.892C160.257 120.822 160.211 107.811 151.832 108.002C150.909 108.023 150.88 108.954 151.38 109.145ZM160.545 103.005C164.064 102.84 166.253 106.684 165.443 109.833C165.304 110.377 164.696 110.91 164.109 110.849L163.962 110.835C163.887 110.828 163.811 110.819 163.742 110.8C163.185 110.645 162.686 110.066 162.726 109.465L162.737 109.29C162.819 107.802 162.658 106.088 160.891 105.728C159.392 105.422 158.555 106.866 158.537 108.194C158.534 108.43 158.269 108.595 158.06 108.468C156.977 107.808 156.789 106.496 157.203 105.366C157.727 103.934 159.04 103.076 160.545 103.005ZM132.414 102.257C134.975 101.402 137.738 102.768 138.978 105.033C139.413 105.159 139.847 105.494 139.786 106.008C139.699 106.747 139.568 107.212 139.056 107.773C138.255 108.649 136.755 108.201 136.422 107.122L136.407 107.073C136.029 105.679 134.495 104.758 133.097 105.247C131.464 105.817 131.511 107.542 130.365 108.548C130.231 108.666 130.069 108.684 129.908 108.606C128.691 108.018 128.91 106.248 129.344 105.235C129.913 103.905 131.018 102.723 132.414 102.257ZM135.757 90.8488L136.189 90.6833C137.669 90.1239 139.701 89.4773 140.905 90.6814C141.647 91.4239 141.788 92.5176 141.259 93.4237C140.616 94.5212 139.465 94.5483 138.353 94.7099C137.088 94.8938 135.801 95.2434 134.624 95.7418C133.297 96.3033 132.066 97.0033 130.86 97.7851C129.714 98.528 128.571 99.7422 127.199 99.9711C127.143 99.9804 127.08 99.9563 127.065 99.8948C126.754 98.5527 127.62 97.232 128.392 96.185C129.327 94.9173 130.46 93.8768 131.727 92.9439C132.949 92.0433 134.345 91.3926 135.757 90.8488ZM162.951 95.0948L163.083 95.0716C163.981 94.9222 164.794 94.9566 165.471 95.6677C165.987 96.2103 166.186 96.9134 165.94 97.6308C165.713 98.2925 165.205 98.9648 164.468 99.1034C161.979 99.5718 159.223 99.4944 156.722 99.1398C155.578 98.9775 154.423 98.7788 153.309 98.4656L152.796 98.3169C151.865 98.051 150.8 97.7732 150.124 97.0886C149.881 96.8426 150.021 96.4905 150.312 96.3766C151.491 95.9146 153.108 96.1604 154.365 96.1243C155.828 96.0824 157.293 95.9727 158.749 95.8216C160.172 95.6737 161.548 95.3522 162.951 95.0948Z" fill="#0C0C0D"/>
<path d="M172.808 102.508C171.891 102.261 170.621 101.547 170 100.644L170.112 102.845C170.627 103.546 171.323 104.085 172.115 104.457C173.987 105.338 176.458 105.347 177.614 103.356C177.982 102.722 177.363 101.773 176.608 102.046C175.408 102.479 174.077 102.849 172.808 102.508Z" fill="#0C0C0D"/>
<path fill-rule="evenodd" clip-rule="evenodd" d="M168 88.0448C168.333 84.2115 168.3 74.8448 165.5 68.0448C167.167 67.0448 167 63.7448 153 58.5448C153.5 57.3781 152.6 55.0448 145 55.0448C143.5 53.5448 138.6 51.1448 131 53.5448C128.557 53.6907 125.593 54.1557 122.466 55.0448C122.811 53.7115 119.5 51.5448 119.5 51.5448C119.5 51.5448 127.027 50.4448 125 44.0448C126.667 42.5448 128.7 39.5448 123.5 39.5448C124 38.0448 124.2 35.2448 121 36.0448C123.167 31.2114 124.3 22.2448 111.5 25.0448C110.167 23.2114 107.1 20.9448 105.5 26.5448C102.833 25.5448 96.6001 25.0448 93.0001 31.0448C89.6668 30.0448 83 30.1448 83 38.5448C81.8333 38.3781 79.5 38.8448 79.5 42.0448C74.3 41.6448 75.3333 44.5448 76.5 46.0448C75.2999 47.6448 77 49.7115 78 50.5448C74 50.9448 75.3333 53.7115 76.5 55.0448C68.0999 60.2448 73 64.8781 76.5 66.5448C73.3 68.1448 75.1666 69.5448 76.5 70.0448C73.7 77.2448 79.6666 78.3781 83 78.0448C88.6 82.0448 92.0001 77.3781 93.0001 74.5448C93.0001 78.9448 97.288 78.7115 99.432 78.0448C99.025 80.3423 98.8648 82.8375 99.0001 85.5448C101.833 86.5448 109.6 87.4448 118 83.0448C128.5 77.5448 148.5 75.0448 165.5 79.0448L168 88.0448ZM116.5 52.5847L119 55.0448C111.117 57.9178 102.921 63.5727 99.7831 73.5847L96.5 70.5847C98.5 59.3847 110.667 53.918 116.5 52.5847Z" fill="#0C0C0D" stroke="#0C0C0D"/>
<path d="M101 86C100.185 84.5805 98.6133 83.0744 98.5 86C98.5 94.3467 83.5 98.5 88.5 99C93.5 99.5 99 94.5 99 94.5C99 94.5 102.192 91.9597 101 86Z" fill="#0C0C0D"/>
<path d="M101 83.5C100.185 82.0806 98.6134 80.5744 98.5 83.5C98.5 91.8467 87 92 89.5 93C92 94 99.5 90 99.5 90C99.5 90 102.192 89.4597 101 83.5Z" fill="#0C0C0D"/>
<path d="M104 123.5C104.333 123 105.9 121.9 107.5 123.5" stroke="#0C0C0D"/>
<path d="M104.496 123.614L104.5 123.545C104.781 121.982 105.271 122.015 106.5 123.045C105.902 126.535 106.5 129.045 105 130.545C104.525 131.02 104.049 131.106 103.604 130.824L103.2 130.905C103.003 131.071 102.772 131.125 102.5 131.045C101.722 131.179 99.982 129.668 99.5 124.045H101.5C101.807 127.623 102.533 129.886 103.407 130.673C104.142 129.624 104.314 126.696 104.496 123.614Z" fill="#0C0C0D"/>
<path d="M101 122C101 121.5 102.1 120.3 104.5 121.5" stroke="#0C0C0D"/>
<path d="M100.388 127.952C100.856 126.66 101.097 124.393 101.5 122.045C101.785 119.988 102.358 120.384 103.5 121.545C102.902 125.035 103.159 128.345 102 128.545L99.5331 129.038C99.5221 129.041 99.5111 129.043 99.5 129.045C98.7221 129.179 97.482 128.668 97 123.045H99C99.2408 125.854 99.7957 127.263 100.388 127.952Z" fill="#0C0C0D"/>
</g>
<circle cx="125" cy="125" r="124" stroke="url(#paint0_linear_17_4509)" stroke-width="2"/>
<defs>
<linearGradient id="paint0_linear_17_4509" x1="214.5" y1="214.5" x2="45.5" y2="31.5" gradientUnits="userSpaceOnUse">
<stop stop-color="#1E00FF"/>
<stop offset="1" stop-color="#FF00B7"/>
</linearGradient>
</defs>
</svg>
