<svg width="220" height="220" viewBox="0 0 220 220" fill="none" xmlns="http://www.w3.org/2000/svg">
<mask id="mask0_17_4509" style="mask-type:alpha" maskUnits="userSpaceOnUse" x="0" y="0" width="220" height="220">
<circle cx="110" cy="110" r="110" fill="#F8F8F8"/>
</mask>
<g mask="url(#mask0_17_4509)">
<circle cx="110" cy="110" r="109.5" fill="#F8F8F8" stroke="#202020"/>
<path fill-rule="evenodd" clip-rule="evenodd" d="M89.0939 100.007C90.7388 100.103 92.1323 100.355 93.6282 101.075L93.7567 101.138C95.0786 101.795 97.2649 103.007 97.0809 104.746C97.0288 105.241 96.67 105.762 96.1048 105.723C94.5561 105.617 93.6712 104.054 92.6226 103.08C91.5648 102.098 90.2652 101.088 88.9842 100.413C88.8032 100.318 88.8745 100.017 89.0715 100.007L89.0939 100.007Z" fill="#0C0C0D"/>
<path d="M99.88 92.9671C99.1467 93.2604 97.24 94.2871 97.24 96.0471C97.24 97.807 99 98.2471 99 98.2471C98.296 96.1351 100.467 94.5804 101.2 94.2871C102.813 93.5537 105.424 90.0631 104.72 81.9671C103.84 71.8471 104.28 73.6071 107.8 72.7271C111.32 71.8471 123.2 67.0071 145.2 70.5271C145.894 69.2455 146.419 68.4795 143.88 68.3271C121.88 64.8071 110.44 70.0871 106.92 70.9671C103.4 71.8471 102.08 70.9671 102.96 81.0871C103.664 89.1831 101.493 92.2337 99.88 92.9671Z" fill="#0C0C0D"/>
<path d="M137.415 128.187C139.615 127.307 144.592 121.852 147.095 116.727C149.598 111.603 150.04 109.996 150.04 108.807C150.04 107.618 147.975 97.3867 147.095 87.2667C146.634 81.9671 146.08 77.1271 144.76 72.2871C144.191 70.3636 145.226 69.5268 146.08 69.6471C146.934 69.7673 149.154 81.7958 149.6 87.2667C151.119 99.083 152.61 106.433 152.375 109.707C152.28 111.024 151.288 114.666 148.855 118.507C145.209 124.419 140.055 129.507 138.295 129.947C137.323 130.19 132.811 131.145 127.735 131.281C123.617 131.392 116.295 129.947 115.855 129.179C115.415 128.411 114.535 126.427 116.735 127.307C118.935 128.187 123.745 129.039 127.6 129.047C132.069 129.057 136.234 128.659 137.415 128.187Z" fill="#0C0C0D"/>
<path d="M88 98.2471C90.3275 95.9905 94.16 96.9271 94.16 96.9271C96.1916 97.5054 98.12 100.447 98.12 100.447C99.0236 102.072 99.2165 103.745 99.88 103.967C100.543 104.189 100.061 100.146 99.4399 98.6871C98.8193 97.228 97.4999 95.1136 92.4 94.7271C90.2776 94.5662 89.1048 94.8306 87.1199 96.0471C86.2399 96.4871 84.0321 98.2458 83.6 100.887C82.9708 104.733 84.1857 108.077 86.24 110.127C88.44 111.887 89.7599 111.887 92.3999 112.327C93.268 112.472 93.6893 113.29 94.1599 114.087C96.7999 119.367 97.2399 119.807 101.64 123.327C103.4 124.207 103.931 124.68 105.16 123.767C105.6 122.887 104.28 122.007 104.28 122.007C104.28 122.007 96.9591 116.457 95.0399 110.127C87.1478 111.147 83.7531 103.15 88 98.2471Z" fill="#0C0C0D"/>
<path d="M87.56 75.2794C86.856 83.7274 88.44 92.2928 89.32 95.5194H90.64C89.76 92.2928 88.176 83.7274 88.88 75.2794H87.56Z" fill="#0C0C0D" stroke="#0C0C0D"/>
<path fill-rule="evenodd" clip-rule="evenodd" d="M101.973 121.524C102.064 121.227 102.456 121.31 102.486 121.593C102.782 124.398 103.757 127.338 103.4 130.124C103.229 131.469 102.382 132.648 102.122 133.974C102.088 134.116 102.056 134.259 102.027 134.4C102.112 134.553 102.365 134.724 102.486 134.841L103.011 135.351L104.062 136.37C106.121 138.364 108.179 140.359 110.237 142.353L113.258 145.282C114.294 146.287 115.47 147.248 116.379 148.368C116.872 148.976 116.984 149.722 116.498 150.373C116.259 150.694 115.827 150.929 115.39 150.977C115.561 151.215 115.693 151.485 115.777 151.784C115.948 152.395 115.331 153.144 114.675 152.889C113.929 152.603 113.314 152.089 112.555 151.844C111.789 151.595 110.956 151.546 110.162 151.68C109.798 151.742 109.441 151.833 109.093 151.948C112.814 153.661 116.839 154.645 120.944 154.786C121.78 154.814 122.615 154.803 123.446 154.747C124.844 154.656 126.233 154.444 127.598 154.102C128.67 153.832 129.732 153.494 130.762 153.084C131.268 152.883 131.768 152.662 132.251 152.411L132.294 152.386C132.403 152.318 134.423 151.172 134.458 151C134.493 150.827 134.493 150.767 134.427 150.617C134.362 150.468 134.179 150.364 134.179 150.364C133.555 150.097 132.909 149.849 132.227 149.844C130.658 149.835 128.945 150.996 127.648 151.786C126.222 152.655 124.911 153.67 123.539 154.612C123.507 154.634 123.472 154.643 123.439 154.643C123.294 154.643 123.16 154.464 123.253 154.325C124.236 152.876 125.563 151.67 126.952 150.617L127.511 150.198C128.783 149.249 130.27 148.199 131.816 147.97C133.71 147.691 135.689 148.872 137.379 149.564L140.372 150.789C140.905 151.007 141.486 151.193 142.023 151.44L140.768 147.514C140.142 145.551 139.517 143.587 138.898 141.622L138.778 141.237C138.161 139.242 137.595 137.167 136.568 135.345C136.323 134.908 136.042 134.497 135.765 134.082C135.477 133.653 135.369 133.178 135.006 132.795C134.289 132.034 133.261 131.588 132.279 131.296C132.039 131.225 132.11 130.909 132.335 130.885C133.342 130.779 134.303 131.014 135.213 131.439L135.591 131.619C136.452 132.027 137.292 132.406 137.931 133.137C139.388 134.807 140.145 136.91 140.84 138.986L141.026 139.543C141.286 139.457 143.055 139.997 143.276 140.125C149.904 142.928 155.009 148.146 158.742 154.262C162.832 160.963 165.06 168.62 166.898 176.197C167.466 178.536 168.008 180.881 168.53 183.232C166.207 184.126 163.738 184.594 161.564 185.854C160.736 186.333 161.484 187.62 162.315 187.138C164.351 185.959 166.671 185.523 168.851 184.695C170.033 190.137 171.084 195.61 171.964 201.105C174.67 217.97 176.378 235.111 176.27 252.207C176.268 252.585 176.157 253.007 175.95 253.369C176.071 253.31 176.166 253.239 176.22 253.154C176.906 252.077 178.626 253.076 177.936 254.158L177.835 254.315C177.318 255.113 176.835 255.723 175.925 256.174C175.008 256.628 174.015 256.704 173.004 256.73C169.566 256.821 166.126 256.88 162.685 256.922C162.213 253.24 162.021 249.523 161.371 245.862C161.204 244.921 159.771 245.32 159.937 246.258C160.565 249.793 160.766 253.381 161.204 256.94C153.847 257.019 146.487 257.02 139.136 257.041C129.173 257.07 119.212 257.049 109.251 257.044L104.981 257.043C93.4729 257.043 81.9646 257.005 70.4566 256.929L67.7197 256.91C66.631 250.489 65.8899 244.014 65.8762 237.489C65.8741 236.532 64.3868 236.53 64.3889 237.489C64.4026 244.007 65.1355 250.483 66.2142 256.901C63.4894 256.889 60.7659 256.899 58.041 256.996L56.654 257.046C53.8791 257.141 51.0985 257.199 48.3287 256.978C45.2537 256.73 42.1435 256.165 39.3864 254.716C38.1446 254.062 37.0513 253.227 36.1169 252.244C37.0667 251.691 38.0301 251.161 38.9502 250.559C39.748 250.037 39.0038 248.748 38.1995 249.274C37.208 249.923 36.1658 250.489 35.1449 251.089C34.4057 250.102 33.7991 249.007 33.3384 247.825C32.6114 245.96 32.3307 243.953 32.0871 241.978C31.7992 239.651 31.68 237.305 31.68 234.962C31.68 230.034 32.1987 225.12 32.9221 220.25C33.6139 215.586 34.5283 210.959 35.4949 206.346L35.627 205.717C36.5807 201.183 37.4899 196.635 38.583 192.133C39.5939 187.969 40.762 183.825 42.1541 179.761C43.3932 180.527 44.69 181.198 45.9098 181.996C46.7131 182.522 47.4592 181.234 46.6605 180.711C45.3591 179.859 43.9711 179.151 42.6577 178.319C44.2144 173.967 46.0416 169.717 48.2322 165.646C52.6197 157.494 58.532 150.202 66.1043 144.819C69.8949 142.126 74.0539 139.922 78.4212 138.319C82.8739 136.682 87.4881 135.786 92.2067 135.418C92.3414 135.407 92.417 135.532 92.4115 135.647L92.4095 135.668L92.5954 135.698C92.6642 135.232 92.8055 134.779 93.0751 134.365C93.6886 133.42 94.8522 132.814 95.7818 132.233L96.0022 132.096C97.1082 131.41 98.2753 130.735 99.5617 130.494C99.6063 130.487 99.634 130.533 99.6042 130.569C98.756 131.542 97.6713 132.285 96.6772 133.108L96.4487 133.299C95.6248 133.977 94.4757 134.747 94.4451 135.88C94.4099 137.216 94.683 138.605 94.7818 139.937C94.8803 141.265 94.9489 142.591 94.9842 143.923C95.1127 148.693 94.9584 153.466 94.5362 158.218L96.4026 156.968C99.3074 155.023 102.222 153.083 105.197 151.262C106.996 150.159 109.019 149.216 111.176 149.259C111.78 149.27 112.462 149.357 113.117 149.543C112.412 148.876 111.737 148.165 111.048 147.494C109.911 146.387 108.775 145.28 107.64 144.176L104.364 140.984L101.088 137.792C100.073 136.801 98.8829 135.888 98.9907 134.326C99.0783 133.08 100.485 132.142 100.919 130.941C100.98 130.768 101.036 130.597 101.088 130.427C101.962 127.522 101.086 124.418 101.973 121.524ZM144.903 245.962C144.225 245.284 143.173 246.336 143.851 247.014L144.21 247.371C144.808 247.969 145.402 248.585 145.816 249.323L145.877 249.435C146.323 250.282 147.607 249.531 147.161 248.684C146.609 247.637 145.731 246.791 144.903 245.962ZM115.875 245.771C113.719 245.359 111.64 245.359 109.483 245.771C108.544 245.95 108.942 247.385 109.878 247.206C111.765 246.845 113.593 246.845 115.48 247.206C116.415 247.384 116.816 245.951 115.875 245.771ZM86.7476 230.773C85.8195 230.537 85.4235 231.972 86.3524 232.207L86.8096 232.322C88.3641 232.707 89.8447 232.993 91.4595 232.636C92.3814 232.432 92.0086 231.032 91.1006 231.194L91.064 231.201C89.5698 231.531 88.1933 231.139 86.7476 230.773ZM138.478 221.108C137.791 220.44 136.738 221.491 137.426 222.16C138.284 222.995 139.296 223.63 140.522 223.664C141.465 223.69 141.478 222.246 140.564 222.178L140.522 222.176C139.7 222.153 139.046 221.661 138.478 221.108ZM50.944 217.134C51.8003 216.706 51.0479 215.422 50.1935 215.85L45.0533 218.421V218.421C44.1969 218.849 44.9493 220.133 45.8038 219.706L50.944 217.134V217.134ZM152.516 217.462C151.558 217.435 151.559 218.923 152.516 218.95C153.415 218.975 154.337 219.316 155.139 219.706C155.996 220.122 156.751 218.84 155.889 218.421C154.842 217.912 153.691 217.495 152.516 217.462ZM104.488 210.278C105.275 209.743 104.532 208.453 103.737 208.994C102.653 209.73 101.67 210.601 100.603 211.361L100.31 211.565C99.523 212.1 100.266 213.389 101.061 212.849C102.243 212.045 103.305 211.082 104.488 210.278ZM159.798 199.464C158.84 199.464 158.839 200.952 159.798 200.952L159.979 200.952C160.769 200.947 161.602 200.926 162.336 201.241L162.421 201.279C163.282 201.685 164.038 200.403 163.171 199.995C162.094 199.487 160.968 199.465 159.798 199.464ZM77.199 198.402L77.3239 198.355C78.2182 198.033 77.8326 196.595 76.9285 196.92C75.5661 197.41 74.5062 198.335 73.3243 199.137C72.5368 199.673 73.2801 200.962 74.0749 200.422C75.0932 199.731 76.0406 198.855 77.199 198.402V198.402ZM132.986 194.531L133.187 194.423C134.038 193.985 133.287 192.701 132.436 193.138C131.761 193.486 131.157 193.948 130.495 194.316L130.294 194.424C129.443 194.862 130.195 196.146 131.045 195.709C131.72 195.361 132.324 194.899 132.986 194.531V194.531ZM110.36 180.119L110.207 179.971C109.522 179.3 108.47 180.352 109.155 181.023C110.866 182.699 112.89 183.971 114.931 185.201L115.302 185.424C116.125 185.918 116.874 184.632 116.053 184.14L115.508 183.812C113.693 182.717 111.9 181.587 110.36 180.119V180.119ZM69.2015 178.73C69.7782 177.981 68.524 177.247 67.9378 177.953L67.9172 177.979C67.3168 178.758 66.6045 179.464 65.86 180.108L65.72 180.228C65.2768 180.606 64.4701 181.414 63.8475 181.467C62.9008 181.547 62.8922 183.036 63.8475 182.955C64.8109 182.873 65.6399 182.194 66.3677 181.613C67.4271 180.768 68.3747 179.803 69.2015 178.73ZM148.33 173.309C149.021 172.66 148 171.626 147.302 172.235L147.278 172.258C145.986 173.471 144.129 173.797 142.466 174.209C141.537 174.439 141.931 175.874 142.861 175.643L143.619 175.456C145.318 175.032 147.023 174.538 148.33 173.309ZM118.874 163.924C117.946 163.688 117.55 165.123 118.479 165.359C120.056 165.76 121.55 166.278 123.012 166.998C123.868 167.419 124.623 166.137 123.763 165.713C122.19 164.939 120.572 164.356 118.874 163.924ZM134.067 132.559C134.045 132.492 134.116 132.416 134.184 132.44C135.854 133.062 134.966 135.249 134.448 136.558L134.354 136.798C133.541 138.895 132.405 140.938 131.167 142.816C129.871 144.782 128.432 146.664 126.874 148.431C126.199 149.198 125.498 149.943 124.773 150.666L124.5 150.936C123.768 151.656 122.823 152.921 121.687 152.781C120.464 152.634 119.782 151.327 120.674 150.334C121.304 149.631 122.178 149.071 122.883 148.431C123.582 147.799 124.259 147.146 124.918 146.474C126.268 145.096 127.547 143.64 128.717 142.106C129.848 140.622 130.93 139.097 131.914 137.512L132.11 137.194C132.859 135.961 134.588 134.147 134.067 132.559ZM74.9316 148.144C74.1392 147.602 73.3944 148.891 74.1808 149.429C75.6269 150.418 76.8991 151.615 78.4643 152.429C79.3024 152.864 80.0477 151.616 79.2448 151.16L79.2151 151.144C77.651 150.331 76.3769 149.132 74.9316 148.144Z" fill="#0C0C0D"/>
<path fill-rule="evenodd" clip-rule="evenodd" d="M132.944 109.954C133.229 109.458 133.886 108.998 134.487 109.068C137.179 109.384 137.174 112.649 136.135 114.555C135.213 116.245 133.306 117.237 131.397 117.092C129.391 116.94 127.682 115.76 126.93 113.884C126.433 112.642 126.203 110.35 127.526 109.516C127.551 109.5 127.591 109.504 127.611 109.527C128.245 110.265 128.27 111.373 128.825 112.195C129.342 112.96 130.144 113.591 131.084 113.688C131.786 113.761 132.497 113.508 132.771 112.877C132.92 112.536 132.903 112.351 132.847 112.117L132.796 111.913C132.62 111.198 132.541 110.654 132.944 109.954ZM133.214 96.0473C134.847 96.5521 137.541 97.9271 136.69 100.049C135.502 101.999 132.351 100.566 130.824 99.9363C129.452 99.4817 128.738 101.405 130.064 101.985C141.026 106.323 140.985 94.8737 133.612 95.0418C132.8 95.0602 132.774 95.8795 133.214 96.0473ZM141.279 90.6445C144.376 90.4994 146.302 93.8818 145.59 96.6532C145.467 97.1314 144.932 97.6008 144.416 97.5471L144.286 97.5351C144.22 97.5288 144.154 97.5204 144.093 97.5036C143.603 97.3678 143.163 96.8578 143.199 96.3292L143.209 96.1752C143.281 94.866 143.139 93.3577 141.584 93.0406C140.265 92.7717 139.528 94.0418 139.513 95.2109C139.51 95.4185 139.277 95.5633 139.093 95.4518C138.139 94.8713 137.974 93.7165 138.339 92.722C138.8 91.4619 139.955 90.7065 141.279 90.6445ZM116.524 89.9863C118.778 89.2341 121.209 90.4358 122.3 92.4288C122.683 92.5397 123.065 92.8349 123.012 93.2868C122.935 93.937 122.82 94.3469 122.369 94.84C121.664 95.6113 120.344 95.2169 120.051 94.2674L120.039 94.2246C119.706 92.9972 118.355 92.1874 117.125 92.6171C115.688 93.1189 115.73 94.6373 114.722 95.5218C114.603 95.6258 114.461 95.6423 114.319 95.5737C113.248 95.0561 113.441 93.4983 113.822 92.6066C114.323 91.4366 115.296 90.396 116.524 89.9863ZM119.466 79.9469L119.846 79.8013C121.149 79.309 122.937 78.7401 123.996 79.7996C124.649 80.453 124.774 81.4155 124.308 82.2128C123.743 83.1787 122.729 83.2025 121.75 83.3448C120.637 83.5066 119.505 83.8142 118.469 84.2527C117.302 84.7469 116.218 85.3629 115.157 86.0509C114.148 86.7046 113.143 87.7731 111.935 87.9746C111.886 87.9827 111.83 87.9615 111.817 87.9074C111.543 86.7264 112.305 85.5642 112.985 84.6428C113.808 83.5272 114.805 82.6116 115.92 81.7906C116.995 80.9981 118.224 80.4255 119.466 79.9469ZM143.397 83.6834L143.513 83.663C144.303 83.5315 145.019 83.5618 145.614 84.1876C146.069 84.665 146.244 85.2838 146.027 85.9151C145.827 86.4974 145.38 87.089 144.732 87.211C142.542 87.6232 140.116 87.5551 137.915 87.243C136.908 87.1002 135.892 86.9254 134.912 86.6497L134.46 86.5189C133.642 86.2849 132.704 86.0404 132.109 85.438C131.896 85.2215 132.019 84.9117 132.275 84.8114C133.312 84.4048 134.735 84.6212 135.841 84.5893C137.129 84.5525 138.418 84.456 139.699 84.323C140.951 84.1928 142.163 83.9099 143.397 83.6834Z" fill="#0C0C0D"/>
<path d="M152.071 90.2075C151.264 89.9899 150.147 89.3612 149.6 88.5671L149.699 90.5032C150.152 91.1207 150.764 91.5949 151.461 91.9223C153.108 92.6979 155.283 92.7053 156.3 90.9533C156.624 90.3953 156.079 89.5602 155.415 89.8002C154.359 90.1814 153.188 90.5069 152.071 90.2075Z" fill="#0C0C0D"/>
<path fill-rule="evenodd" clip-rule="evenodd" d="M147.84 77.4794C148.133 74.1061 148.104 65.8634 145.64 59.8794C147.107 58.9994 146.96 56.0954 134.64 51.5194C135.08 50.4928 134.288 48.4394 127.6 48.4394C126.28 47.1194 121.968 45.0074 115.28 47.1194C113.13 47.2478 110.522 47.6571 107.77 48.4394C108.074 47.2661 105.16 45.3594 105.16 45.3594C105.16 45.3594 111.784 44.3914 110 38.7594C111.467 37.4394 113.256 34.7994 108.68 34.7994C109.12 33.4794 109.296 31.0154 106.48 31.7194C108.387 27.4661 109.384 19.5754 98.1201 22.0394C96.9468 20.4261 94.2481 18.4314 92.8401 23.3594C90.4934 22.4794 85.0081 22.0394 81.8401 27.3194C78.9067 26.4394 73.0399 26.5274 73.0399 33.9194C72.0133 33.7728 69.96 34.1834 69.96 36.9994C65.384 36.6474 66.2933 39.1994 67.3199 40.5194C66.2639 41.9274 67.76 43.7461 68.64 44.4794C65.12 44.8314 66.2933 47.2661 67.3199 48.4394C59.9279 53.0154 64.2399 57.0928 67.3199 58.5594C64.504 59.9674 66.1466 61.1994 67.3199 61.6394C64.8559 67.9754 70.1066 68.9728 73.0399 68.6794C77.9679 72.1994 80.9601 68.0928 81.8401 65.5994C81.8401 69.4714 85.6135 69.2661 87.5001 68.6794C87.142 70.7012 87.001 72.897 87.1201 75.2794C89.6134 76.1594 96.4481 76.9514 103.84 73.0794C113.08 68.2394 130.68 66.0394 145.64 69.5594L147.84 77.4794ZM102.52 46.2745L104.72 48.4394C97.7834 50.9677 90.5709 55.944 87.8091 64.7545L84.92 62.1145C86.68 52.2585 97.3866 47.4479 102.52 46.2745Z" fill="#0C0C0D" stroke="#0C0C0D"/>
<path d="M96.68 83.24C95.865 81.8205 94.2933 80.3144 94.18 83.24C94.18 91.5867 79.18 95.74 84.18 96.24C89.18 96.74 94.68 91.74 94.68 91.74C94.68 91.74 97.8719 89.1997 96.68 83.24Z" fill="#0C0C0D"/>
<path d="M96.68 80.74C95.865 79.3206 94.2933 77.8144 94.18 80.74C94.18 89.0867 82.68 89.24 85.18 90.24C87.68 91.24 95.18 87.24 95.18 87.24C95.18 87.24 97.8719 86.6997 96.68 80.74Z" fill="#0C0C0D"/>
<path d="M91.52 108.68C91.8133 108.24 93.192 107.272 94.6 108.68" stroke="#0C0C0D"/>
<path d="M91.9564 108.78L91.96 108.719C92.2072 107.344 92.6384 107.373 93.72 108.279C93.1935 111.351 93.72 113.559 92.4 114.879C91.9822 115.297 91.5629 115.373 91.1714 115.125L90.8162 115.196C90.6428 115.343 90.4396 115.39 90.2 115.319C89.5154 115.438 87.9841 114.108 87.56 109.159H89.32C89.5899 112.308 90.2289 114.3 90.998 114.992C91.6451 114.069 91.7967 111.493 91.9564 108.78Z" fill="#0C0C0D"/>
<path d="M88.88 107.36C88.88 106.92 89.848 105.864 91.96 106.92" stroke="#0C0C0D"/>
<path d="M88.3412 112.598C88.7531 111.461 88.9657 109.466 89.32 107.399C89.5712 105.589 90.075 105.938 91.08 106.959C90.5534 110.031 90.7798 112.943 89.76 113.119L87.5891 113.554C87.5795 113.556 87.5698 113.558 87.56 113.559C86.8754 113.678 85.7841 113.228 85.36 108.279H87.12C87.3319 110.752 87.8202 111.991 88.3412 112.598Z" fill="#0C0C0D"/>
</g>
<circle cx="110" cy="110" r="109.5" stroke="#202020"/>
</svg>
