<svg width="296" height="198" viewBox="0 0 296 198" fill="none" xmlns="http://www.w3.org/2000/svg">
<path d="M108 75.4286L148 99V144L108 121.143L108 75.4286Z" fill="#F8F8F8"/>
<path d="M148.5 143.138V99.2857L187.5 76.3036V120.853L148.5 143.138ZM186.98 75.4493L148 98.4196L109.02 75.4493L148 54.5672L186.98 75.4493Z" stroke="white"/>
<path d="M211.44 93.2554C212.108 94.0573 212.72 94.8285 213.311 95.673C213.322 95.6902 213.326 95.7102 213.324 95.7301C213.323 95.7501 213.315 95.769 213.302 95.7842C213.289 95.7994 213.271 95.8102 213.252 95.8149C213.232 95.8196 213.212 95.8181 213.193 95.8105C212.704 95.5737 212.276 95.2264 211.944 94.7961C211.612 94.3657 211.384 93.8641 211.279 93.3307C211.276 93.311 211.279 93.2908 211.289 93.2731C211.298 93.2555 211.313 93.2414 211.331 93.2329C211.349 93.2245 211.37 93.2221 211.389 93.2261C211.409 93.2301 211.427 93.2404 211.44 93.2554Z" fill="#FF2058"/>
<path d="M294.065 99.0208C298.755 97.602 285.402 92.2484 282.688 86.5536C282.688 86.5536 282.629 86.387 282.478 86.4231C282.326 86.4592 282.36 86.6378 282.36 86.6378C283.167 90.7328 286.749 93.7917 289.852 96.351C270.915 91.5578 266.9 74.8332 259.133 54.38C257.529 50.1581 255.022 51.7694 253.798 53.927C251.522 59.3346 252.178 66.179 251.552 71.9396C250.963 79.0583 251.265 87.4423 249.795 94.4528C249.298 96.8187 247.817 97.3388 246.658 94.7949C244.455 89.9703 242.589 83.7787 240.735 78.7966C239.704 75.9596 238.833 72.9788 237.388 70.2598C236.458 68.2067 234.02 68.0011 233.381 70.3523C232 77.2143 235.448 97.7879 229.706 103.632C222.268 111.19 209.226 98.8855 206.378 91.2228C206.36 91.1737 206.323 91.1338 206.276 91.1117C206.228 91.0896 206.174 91.0871 206.125 91.1047C206.054 91.1298 205.997 91.1817 205.965 91.249C205.933 91.3163 205.93 91.3935 205.955 91.4636C209.054 101.526 226.134 115.403 232.836 102.779C236.399 96.0588 234.229 83.5802 235.309 74.6996C235.367 74.2197 235.612 72.7188 236.192 74.5991C238.646 82.5989 240.925 90.7329 244.601 98.3025C248.158 105.139 252.268 100.475 253.109 95.0492C255.271 85.0336 255.11 72.5682 256.525 62.3482C256.75 60.7234 257.342 60.2676 258.025 62.0631C264.649 79.5075 272.274 95.0975 288.719 97.4268C284.896 98.4132 280.903 100.815 279.448 104.656C279.448 104.656 279.366 104.81 279.481 104.898C279.596 104.985 279.714 104.865 279.714 104.865C284.05 101.512 290.33 100.152 294.065 99.0208ZM236.014 71.013C236.035 70.9814 236.051 70.9758 236.014 71.013ZM248.831 98.1156C248.862 98.1372 248.873 98.1334 248.831 98.1156Z" fill="#FF2058"/>
<path d="M214.457 97.0352C218.19 99.9328 223.459 102.765 228.089 100.575C228.099 100.568 228.111 100.566 228.122 100.567C228.134 100.569 228.145 100.575 228.152 100.585C228.159 100.594 228.163 100.606 228.162 100.618C228.162 100.629 228.157 100.641 228.148 100.649C224.31 104.822 216.729 101.537 214.383 97.0971C214.375 97.0874 214.371 97.0748 214.372 97.0621C214.373 97.0495 214.379 97.0377 214.389 97.0295C214.399 97.0213 214.411 97.0173 214.424 97.0183C214.437 97.0194 214.448 97.0255 214.457 97.0352Z" fill="#FF2058"/>
<path d="M247.971 72.5088C247.82 72.1638 247.746 71.7899 247.755 71.4134C247.764 71.0369 247.855 70.6668 248.022 70.3291C248.04 70.2947 248.067 70.2662 248.101 70.2465C248.135 70.2269 248.173 70.217 248.212 70.2179C248.251 70.2188 248.289 70.2305 248.322 70.2517C248.355 70.2729 248.381 70.3028 248.397 70.338C248.548 70.683 248.622 71.0569 248.613 71.4334C248.605 71.8099 248.514 72.18 248.347 72.5177C248.329 72.5521 248.301 72.5806 248.267 72.6003C248.234 72.6199 248.195 72.6298 248.156 72.6289C248.117 72.628 248.079 72.6163 248.047 72.5951C248.014 72.5739 247.988 72.544 247.971 72.5088Z" fill="#FF2058"/>
<path d="M248.269 67.757C247.019 62.5382 246.799 53.4988 252.27 50.978C252.29 50.9708 252.312 50.9705 252.333 50.9772C252.353 50.9839 252.37 50.9972 252.382 51.0149C252.394 51.0326 252.399 51.0538 252.398 51.075C252.396 51.0962 252.388 51.1163 252.373 51.1321C248.251 55.0194 249.013 62.3598 248.464 67.7351C248.467 67.761 248.459 67.7869 248.443 67.8072C248.427 67.8276 248.403 67.8406 248.377 67.8435C248.351 67.8464 248.325 67.839 248.305 67.8227C248.285 67.8065 248.272 67.7829 248.269 67.757Z" fill="#FF2058"/>
<path d="M273.834 82.3929C275.161 84.4656 276.818 86.3072 278.739 87.8447C278.753 87.8552 278.763 87.8706 278.766 87.8879C278.77 87.9052 278.766 87.9231 278.757 87.938C278.748 87.953 278.733 87.9639 278.716 87.9686C278.699 87.9733 278.681 87.9715 278.665 87.9635C276.307 87.0528 274.421 84.8788 273.718 82.4611C273.681 82.3819 273.792 82.3245 273.834 82.3929Z" fill="#FF2058"/>
<path d="M9.12483 15.3449C12.3333 11.197 13.278 5.62552 14.1061 0.529436C14.1061 0.529436 14.1398 0.226905 14.3097 0.233844C14.4796 0.240783 14.4702 0.544305 14.4702 0.544305C14.6844 4.60105 14.4927 8.69897 13.386 12.6562C36.6698 -3.75797 72.4951 9.38723 87.2327 31.6058C87.2327 31.6058 87.476 31.8984 87.2561 32.0748C87.0361 32.2512 86.7179 31.9312 86.7179 31.9312C77.8853 21.5417 62.0298 13.1537 51.8453 11.2365C37.2604 8.49525 27.8596 10.1596 15.4643 14.0053C19.4474 12.767 24.5456 15.4034 26.6794 19.262C26.6794 19.262 26.8018 19.4645 26.7225 19.5464C26.6432 19.6282 26.4191 19.534 26.4191 19.534C23.2753 18.2295 19.8964 17.9942 16.5492 17.7998C13.9342 17.5079 11.2951 17.502 8.67884 17.7823C8.53584 17.7959 8.39201 17.7665 8.26575 17.698C8.13949 17.6295 8.0365 17.5249 7.96995 17.3976C7.9034 17.2703 7.8763 17.1261 7.89211 16.9833C7.90791 16.8405 7.96591 16.7057 8.0587 16.596L9.12483 15.3449Z" fill="#FF2058"/>
<path d="M73.3207 16.484C72.7064 15.4415 71.7208 14.6696 70.5614 14.323C70.5088 14.3085 70.4529 14.3114 70.4022 14.3314C70.3514 14.3514 70.3085 14.3873 70.2798 14.4338C70.2512 14.4802 70.2385 14.5347 70.2434 14.589C70.2484 14.6433 70.2709 14.6946 70.3075 14.7351C71.0861 15.5558 71.9784 16.2606 72.9572 16.8278C73.0046 16.867 73.0647 16.8875 73.1262 16.8855C73.1877 16.8835 73.2464 16.859 73.2911 16.8167C73.3358 16.7745 73.3635 16.7173 73.369 16.656C73.3744 16.5947 73.3573 16.5335 73.3207 16.484Z" fill="#FF2058"/>
<path d="M68.4945 13.2174C61.9002 7.92458 53.0926 4.81149 44.6454 5.81888C44.6003 5.81945 44.5572 5.83795 44.5257 5.87029C44.4941 5.90262 44.4767 5.94616 44.4773 5.99132C44.4779 6.03648 44.4964 6.07956 44.5287 6.11109C44.5611 6.14262 44.6046 6.16 44.6498 6.15943C52.9882 6.84642 60.8955 9.67961 68.3094 13.5077C68.3479 13.5322 68.3946 13.5405 68.4392 13.5306C68.4837 13.5208 68.5226 13.4936 68.5471 13.4551C68.5717 13.4166 68.5799 13.3699 68.57 13.3254C68.5602 13.2808 68.533 13.242 68.4945 13.2174Z" fill="#FF2058"/>
<path d="M9.38293 158.054C13.6599 157.348 18.0474 158.23 21.7192 160.534C21.7461 160.55 21.7777 160.557 21.8091 160.554C21.8404 160.551 21.8699 160.538 21.893 160.516C21.916 160.495 21.9313 160.466 21.9366 160.435C21.9419 160.404 21.9368 160.372 21.9221 160.344C19.8066 157.118 15.6533 153.636 12.1592 155.567C29.1087 146.236 41.3951 170.288 51.8147 175.095C69.2243 183.14 83.9484 159.766 88.1353 143.872C88.1582 143.774 88.1436 143.671 88.0945 143.584C88.0454 143.496 87.9652 143.43 87.8698 143.398C87.7751 143.36 87.6693 143.36 87.5745 143.398C87.4797 143.436 87.4034 143.509 87.3614 143.602C82.5397 155.873 71.6754 170.676 59.718 170.559C45.598 170.417 33.7831 137.781 10.8841 154.031C13.2033 152.385 11.902 146.475 11.1048 144.121C11.1048 144.121 11.0304 143.875 10.9124 143.898C10.7943 143.922 10.7377 144.161 10.7377 144.161C10.7663 149.474 8.73978 154.592 5.08193 158.445C5.01934 158.509 4.97814 158.59 4.96404 158.679C4.94994 158.767 4.96364 158.857 5.00326 158.937C5.04288 159.017 5.10644 159.082 5.18507 159.124C5.26371 159.166 5.35352 159.183 5.44199 159.172C5.44199 159.172 8.70474 158.166 9.38293 158.054Z" fill="#FF2058"/>
<path d="M80.93 146.666C80.8571 147.632 80.4363 148.539 79.7455 149.219C79.7207 149.243 79.6888 149.259 79.6544 149.264C79.62 149.268 79.585 149.262 79.5544 149.246C79.5238 149.229 79.4994 149.203 79.4846 149.172C79.4698 149.14 79.4654 149.105 79.4722 149.071C79.6218 148.138 80.0271 147.264 80.6431 146.547C80.6653 146.52 80.6954 146.501 80.7291 146.493C80.7628 146.485 80.7983 146.487 80.8303 146.501C80.8623 146.514 80.8893 146.537 80.9072 146.567C80.9252 146.597 80.9331 146.631 80.93 146.666Z" fill="#FF2058"/>
<path d="M78.5278 151.176C75.6049 157.668 70.3979 164.401 63.3067 166.029C63.2711 166.04 63.2323 166.037 63.1989 166.02C63.1655 166.003 63.1403 165.974 63.1287 165.938C63.1172 165.902 63.1203 165.863 63.1373 165.83C63.1544 165.797 63.184 165.771 63.2196 165.76C69.8166 163.015 74.3485 156.884 78.2782 151.04C78.2961 151.007 78.3265 150.983 78.3627 150.972C78.3988 150.961 78.4377 150.965 78.4708 150.983C78.5039 151.001 78.5285 151.032 78.5392 151.068C78.5499 151.104 78.5458 151.143 78.5278 151.176Z" fill="#FF2058"/>
</svg>
