<svg width="297" height="198" viewBox="0 0 297 198" fill="none" xmlns="http://www.w3.org/2000/svg">
<path fill-rule="evenodd" clip-rule="evenodd" d="M164.564 44.6396L118.909 45.1581L97.0856 82.957L117.997 125.25L164.923 125.459L188.195 85.1516L164.564 44.6396ZM174.811 105.475L186.135 85.8622L168.036 85.7816L156.572 105.637L174.811 105.475ZM173.982 106.911L164.1 124.027L146.001 123.946L155.743 107.073L173.982 106.911ZM154.085 107.088L144.356 123.939L119.676 123.829L129.214 107.309L154.085 107.088ZM127.98 106.589L118.491 123.025L107.456 100.708L116.371 85.2686L127.98 106.589ZM117.208 83.8187L128.817 105.139L140.477 84.9436L128.737 64.0661L128.611 64.0682L117.208 83.8187ZM115.57 83.7983L106.695 99.1694L98.705 83.0092L107.163 68.3597L115.57 83.7983ZM108 66.9098L116.407 82.3484L127.778 62.6535L127.942 62.6507L119.316 47.3105L108 66.9098ZM130.043 105.873L154.914 105.652L166.391 85.7743L141.71 85.6644L130.043 105.873ZM166.172 84.3447L141.718 84.2359L130.361 64.0388L154.095 63.6395L166.172 84.3447ZM153.269 62.2246L129.565 62.6234L120.537 46.5683L143.982 46.302L153.269 62.2246ZM145.625 46.2833L154.907 62.1971L172.974 61.8931L163.749 46.0775L145.625 46.2833ZM173.799 63.308L155.733 63.612L167.83 84.3521L186.122 84.4336L173.799 63.308Z" fill="url(#paint0_linear_22_79)"/>
<path d="M212.035 93.2554C212.703 94.0573 213.316 94.8285 213.906 95.673C213.917 95.6902 213.921 95.7102 213.92 95.7301C213.918 95.7501 213.91 95.769 213.897 95.7842C213.884 95.7994 213.867 95.8102 213.847 95.8149C213.828 95.8196 213.807 95.8181 213.789 95.8105C213.299 95.5737 212.872 95.2264 212.539 94.7961C212.207 94.3657 211.979 93.8641 211.874 93.3307C211.871 93.311 211.875 93.2908 211.884 93.2731C211.894 93.2555 211.908 93.2414 211.927 93.2329C211.945 93.2245 211.965 93.2221 211.985 93.2261C212.004 93.2301 212.022 93.2404 212.035 93.2554Z" fill="#F8F8F8"/>
<path d="M294.66 99.0208C299.35 97.602 285.997 92.2484 283.283 86.5536C283.283 86.5536 283.224 86.387 283.073 86.4231C282.922 86.4592 282.956 86.6378 282.956 86.6378C283.762 90.7328 287.345 93.7917 290.447 96.351C271.51 91.5578 267.495 74.8332 259.728 54.38C258.125 50.1581 255.617 51.7694 254.393 53.927C252.117 59.3346 252.773 66.179 252.147 71.9396C251.559 79.0583 251.861 87.4423 250.39 94.4528C249.893 96.8187 248.412 97.3388 247.253 94.7949C245.05 89.9703 243.184 83.7787 241.33 78.7966C240.299 75.9596 239.428 72.9788 237.983 70.2598C237.053 68.2067 234.615 68.0011 233.976 70.3523C232.595 77.2143 236.044 97.7879 230.301 103.632C222.863 111.19 209.821 98.8855 206.974 91.2228C206.955 91.1737 206.918 91.1338 206.871 91.1117C206.823 91.0896 206.769 91.0871 206.72 91.1047C206.65 91.1298 206.592 91.1817 206.561 91.249C206.529 91.3163 206.525 91.3935 206.55 91.4636C209.649 101.526 226.729 115.403 233.431 102.779C236.994 96.0588 234.824 83.5802 235.904 74.6996C235.962 74.2197 236.208 72.7188 236.787 74.5991C239.242 82.5989 241.521 90.7329 245.196 98.3025C248.753 105.139 252.863 100.475 253.704 95.0492C255.866 85.0336 255.705 72.5682 257.12 62.3482C257.345 60.7234 257.937 60.2676 258.62 62.0631C265.244 79.5075 272.87 95.0975 289.314 97.4268C285.492 98.4132 281.498 100.815 280.043 104.656C280.043 104.656 279.961 104.81 280.076 104.898C280.191 104.985 280.309 104.865 280.309 104.865C284.646 101.512 290.925 100.152 294.66 99.0208ZM236.609 71.013C236.631 70.9814 236.647 70.9758 236.609 71.013ZM249.426 98.1156C249.458 98.1372 249.468 98.1334 249.426 98.1156Z" fill="#F8F8F8"/>
<path d="M215.052 97.0352C218.785 99.9328 224.055 102.765 228.684 100.575C228.694 100.568 228.706 100.566 228.718 100.567C228.729 100.569 228.74 100.575 228.747 100.585C228.755 100.594 228.758 100.606 228.758 100.618C228.757 100.629 228.752 100.641 228.743 100.649C224.906 104.822 217.325 101.537 214.978 97.0971C214.97 97.0874 214.966 97.0748 214.967 97.0621C214.968 97.0495 214.974 97.0377 214.984 97.0295C214.994 97.0213 215.006 97.0173 215.019 97.0183C215.032 97.0194 215.044 97.0255 215.052 97.0352Z" fill="#F8F8F8"/>
<path d="M248.566 72.5088C248.415 72.1638 248.342 71.7899 248.35 71.4134C248.359 71.0369 248.45 70.6668 248.617 70.3291C248.635 70.2947 248.663 70.2662 248.696 70.2465C248.73 70.2269 248.768 70.217 248.807 70.2179C248.846 70.2188 248.884 70.2305 248.917 70.2517C248.95 70.2729 248.976 70.3028 248.993 70.338C249.144 70.683 249.217 71.0569 249.209 71.4334C249.2 71.8099 249.109 72.18 248.942 72.5177C248.924 72.5521 248.896 72.5806 248.863 72.6003C248.829 72.6199 248.791 72.6298 248.752 72.6289C248.713 72.628 248.675 72.6163 248.642 72.5951C248.609 72.5739 248.583 72.544 248.566 72.5088Z" fill="#F8F8F8"/>
<path d="M248.864 67.757C247.614 62.5382 247.394 53.4988 252.866 50.978C252.886 50.9708 252.908 50.9705 252.928 50.9772C252.948 50.9839 252.965 50.9972 252.977 51.0149C252.989 51.0326 252.995 51.0538 252.993 51.075C252.991 51.0962 252.983 51.1163 252.968 51.1321C248.847 55.0194 249.608 62.3598 249.059 67.7351C249.062 67.761 249.054 67.7869 249.038 67.8072C249.022 67.8276 248.998 67.8406 248.972 67.8435C248.947 67.8464 248.921 67.839 248.9 67.8227C248.88 67.8065 248.867 67.7829 248.864 67.757Z" fill="#F8F8F8"/>
<path d="M274.429 82.3929C275.756 84.4656 277.413 86.3072 279.335 87.8447C279.349 87.8552 279.358 87.8706 279.362 87.8879C279.365 87.9052 279.361 87.9231 279.352 87.938C279.343 87.953 279.328 87.9639 279.311 87.9686C279.294 87.9733 279.276 87.9715 279.261 87.9635C276.902 87.0528 275.016 84.8788 274.314 82.4611C274.276 82.3819 274.387 82.3245 274.429 82.3929Z" fill="#F8F8F8"/>
<path d="M9.72005 15.3449C12.9285 11.197 13.8732 5.62552 14.7013 0.529436C14.7013 0.529436 14.735 0.226905 14.9049 0.233844C15.0748 0.240783 15.0654 0.544305 15.0654 0.544305C15.2796 4.60105 15.0879 8.69897 13.9812 12.6562C37.2651 -3.75797 73.0903 9.38723 87.8279 31.6058C87.8279 31.6058 88.0712 31.8984 87.8513 32.0748C87.6313 32.2512 87.3131 31.9312 87.3131 31.9312C78.4805 21.5417 62.625 13.1537 52.4405 11.2365C37.8556 8.49525 28.4548 10.1596 16.0595 14.0053C20.0426 12.767 25.1408 15.4034 27.2746 19.262C27.2746 19.262 27.397 19.4645 27.3177 19.5464C27.2384 19.6282 27.0143 19.534 27.0143 19.534C23.8705 18.2295 20.4916 17.9942 17.1445 17.7998C14.5294 17.5079 11.8904 17.502 9.27406 17.7823C9.13105 17.7959 8.98723 17.7665 8.86097 17.698C8.7347 17.6295 8.63172 17.5249 8.56517 17.3976C8.49861 17.2703 8.47151 17.1261 8.48732 16.9833C8.50313 16.8405 8.56112 16.7057 8.65391 16.596L9.72005 15.3449Z" fill="#F8F8F8"/>
<path d="M73.9159 16.484C73.3016 15.4414 72.316 14.6696 71.1566 14.323C71.104 14.3085 71.0481 14.3114 70.9974 14.3314C70.9466 14.3514 70.9037 14.3873 70.8751 14.4337C70.8464 14.4802 70.8337 14.5347 70.8387 14.589C70.8437 14.6433 70.8661 14.6946 70.9027 14.735C71.6813 15.5558 72.5736 16.2606 73.5524 16.8277C73.5998 16.867 73.6599 16.8875 73.7214 16.8855C73.783 16.8835 73.8416 16.859 73.8863 16.8167C73.931 16.7744 73.9587 16.7173 73.9642 16.656C73.9696 16.5947 73.9525 16.5335 73.9159 16.484Z" fill="#F8F8F8"/>
<path d="M69.0897 13.2174C62.4954 7.92458 53.6878 4.81149 45.2406 5.81888C45.1955 5.81945 45.1524 5.83795 45.1209 5.87029C45.0893 5.90262 45.072 5.94616 45.0725 5.99132C45.0731 6.03648 45.0916 6.07956 45.1239 6.11109C45.1563 6.14262 45.1998 6.16 45.245 6.15943C53.5834 6.84642 61.4907 9.67961 68.9047 13.5077C68.9431 13.5322 68.9898 13.5405 69.0344 13.5306C69.079 13.5208 69.1178 13.4936 69.1423 13.4551C69.1669 13.4166 69.1751 13.3699 69.1653 13.3254C69.1554 13.2808 69.1282 13.242 69.0897 13.2174Z" fill="#F8F8F8"/>
<path d="M9.97815 158.054C14.2551 157.348 18.6426 158.23 22.3144 160.534C22.3413 160.55 22.3729 160.557 22.4043 160.554C22.4357 160.551 22.4651 160.538 22.4882 160.516C22.5112 160.495 22.5265 160.466 22.5318 160.435C22.5371 160.404 22.532 160.372 22.5173 160.344C20.4018 157.118 16.2485 153.636 12.7544 155.567C29.7039 146.236 41.9903 170.288 52.41 175.095C69.8195 183.14 84.5436 159.766 88.7305 143.872C88.7534 143.774 88.7388 143.671 88.6897 143.584C88.6406 143.496 88.5604 143.43 88.465 143.398C88.3703 143.36 88.2645 143.36 88.1697 143.398C88.075 143.436 87.9986 143.509 87.9566 143.602C83.1349 155.873 72.2706 170.676 60.3132 170.559C46.1932 170.417 34.3784 137.781 11.4793 154.031C13.7985 152.385 12.4972 146.475 11.7001 144.121C11.7001 144.121 11.6256 143.875 11.5076 143.898C11.3895 143.922 11.3329 144.161 11.3329 144.161C11.3615 149.474 9.33499 154.592 5.67714 158.445C5.61456 158.509 5.57335 158.59 5.55925 158.679C5.54515 158.767 5.55886 158.857 5.59848 158.937C5.6381 159.017 5.70165 159.082 5.78029 159.124C5.85892 159.166 5.94874 159.183 6.0372 159.172C6.0372 159.172 9.29995 158.166 9.97815 158.054Z" fill="#F8F8F8"/>
<path d="M81.5252 146.666C81.4523 147.632 81.0315 148.539 80.3407 149.219C80.3159 149.243 80.284 149.259 80.2496 149.264C80.2152 149.268 80.1802 149.262 80.1496 149.246C80.1191 149.229 80.0946 149.203 80.0798 149.172C80.065 149.14 80.0606 149.105 80.0674 149.071C80.217 148.138 80.6223 147.264 81.2383 146.547C81.2605 146.52 81.2906 146.501 81.3243 146.493C81.358 146.485 81.3935 146.487 81.4255 146.501C81.4576 146.514 81.4845 146.537 81.5025 146.567C81.5204 146.597 81.5284 146.631 81.5252 146.666Z" fill="#F8F8F8"/>
<path d="M79.123 151.176C76.2001 157.668 70.9932 164.401 63.9019 166.029C63.8663 166.04 63.8275 166.037 63.7941 166.02C63.7607 166.003 63.7355 165.974 63.7239 165.938C63.7124 165.902 63.7155 165.863 63.7325 165.83C63.7496 165.797 63.7792 165.771 63.8149 165.76C70.4119 163.015 74.9437 156.884 78.8734 151.04C78.8914 151.007 78.9218 150.983 78.9579 150.972C78.994 150.961 79.0329 150.965 79.066 150.983C79.0991 151.001 79.1237 151.032 79.1344 151.068C79.1451 151.104 79.141 151.143 79.123 151.176Z" fill="#F8F8F8"/>
<defs>
<linearGradient id="paint0_linear_22_79" x1="117.686" y1="45" x2="164.115" y2="127.857" gradientUnits="userSpaceOnUse">
<stop offset="0.115" stop-color="#F8F8F8"/>
<stop offset="1" stop-color="#3C3C3C"/>
</linearGradient>
</defs>
</svg>
