<svg width="220" height="220" viewBox="0 0 220 220" fill="none" xmlns="http://www.w3.org/2000/svg">
<mask id="mask0_17_4509" style="mask-type:alpha" maskUnits="userSpaceOnUse" x="0" y="0" width="220" height="220">
<circle cx="110" cy="110" r="110" fill="#F8F8F8"/>
</mask>
<g mask="url(#mask0_17_4509)">
<circle cx="110" cy="110" r="108" fill="#F8F8F8" stroke="#0C0C0D" stroke-width="4"/>
<path fill-rule="evenodd" clip-rule="evenodd" d="M84.2431 96.6445C86.1122 96.7534 87.6958 97.0401 89.3957 97.8581L89.5417 97.9296C91.0438 98.6756 93.5283 100.054 93.3192 102.03C93.26 102.592 92.8523 103.184 92.21 103.139C90.4501 103.019 89.4445 101.244 88.253 100.136C87.0509 99.0201 85.5741 97.8725 84.1185 97.1053C83.9127 96.9973 83.9937 96.6554 84.2176 96.6444L84.2431 96.6445Z" fill="#0C0C0D"/>
<path d="M96.5 88.6444C95.6667 88.9777 93.5 90.1444 93.5 92.1444C93.5 94.1444 95.5 94.6444 95.5 94.6444C94.7 92.2444 97.1667 90.4777 98 90.1444C99.8333 89.3111 102.8 85.3444 102 76.1444C101 64.6444 101.5 66.6444 105.5 65.6444C109.5 64.6444 123 59.1444 148 63.1444C148.789 61.6881 149.386 60.8177 146.5 60.6444C121.5 56.6444 108.5 62.6444 104.5 63.6444C100.5 64.6444 99 63.6444 100 75.1444C100.8 84.3444 98.3333 87.811 96.5 88.6444Z" fill="#0C0C0D"/>
<path d="M139.153 128.667C141.653 127.667 147.309 121.468 150.153 115.644C152.998 109.821 153.5 107.996 153.5 106.644C153.5 105.293 151.153 93.6667 150.153 82.1667C149.63 76.1444 149 70.6444 147.5 65.1444C146.853 62.9587 148.03 62.0078 149 62.1444C149.97 62.281 152.493 75.9498 153 82.1667C154.727 95.5943 156.42 103.947 156.153 107.667C156.046 109.164 154.918 113.302 152.153 117.667C148.01 124.385 142.153 130.167 140.153 130.667C139.049 130.943 133.922 132.028 128.153 132.183C123.474 132.309 115.153 130.667 114.653 129.794C114.153 128.922 113.153 126.667 115.653 127.667C118.153 128.667 123.619 129.635 128 129.644C133.079 129.655 137.811 129.204 139.153 128.667Z" fill="#0C0C0D"/>
<path d="M83 94.6444C85.6449 92.0802 90 93.1444 90 93.1444C92.3087 93.8016 94.5 97.1444 94.5 97.1444C95.5268 98.9904 95.7461 100.892 96.5 101.144C97.2539 101.397 96.7052 96.8024 95.9999 95.1444C95.2947 93.4863 93.7954 91.0837 88 90.6444C85.5881 90.4616 84.2554 90.762 81.9999 92.1444C80.9999 92.6444 78.491 94.6429 78 97.6444C77.285 102.015 78.6655 105.815 81 108.144C83.5 110.144 84.9999 110.144 87.9999 110.644C88.9863 110.809 89.4652 111.739 89.9999 112.644C92.9999 118.644 93.4999 119.144 98.4999 123.144C100.5 124.144 101.103 124.682 102.5 123.644C103 122.644 101.5 121.644 101.5 121.644C101.5 121.644 93.1808 115.338 90.9999 108.144C82.0315 109.304 78.174 100.216 83 94.6444Z" fill="#0C0C0D"/>
<path d="M82.5 68.5448C81.7 78.1448 83.5 87.8781 84.5 91.5448H86C85 87.8781 83.2 78.1448 84 68.5448H82.5Z" fill="#0C0C0D" stroke="#0C0C0D"/>
<path fill-rule="evenodd" clip-rule="evenodd" d="M98.878 121.096C98.9815 120.757 99.4275 120.853 99.4613 121.174C99.7972 124.361 100.906 127.702 100.5 130.869C100.306 132.397 99.343 133.737 99.0472 135.243C99.0092 135.404 98.9733 135.567 98.9394 135.727C99.0366 135.901 99.3242 136.095 99.4613 136.228L100.058 136.808L101.253 137.966C103.592 140.231 105.93 142.499 108.269 144.765L111.702 148.094C112.879 149.235 114.216 150.328 115.249 151.6C115.809 152.291 115.936 153.138 115.385 153.878C115.112 154.244 114.622 154.51 114.125 154.565C114.32 154.835 114.47 155.142 114.565 155.482C114.759 156.176 114.058 157.027 113.312 156.738C112.465 156.412 111.765 155.829 110.904 155.55C110.033 155.267 109.087 155.212 108.185 155.364C107.77 155.434 107.365 155.537 106.97 155.668C111.197 157.615 115.771 158.733 120.436 158.893C121.387 158.925 122.335 158.912 123.28 158.849C124.869 158.745 126.446 158.505 127.997 158.116C129.216 157.809 130.423 157.424 131.593 156.959C132.168 156.731 132.736 156.48 133.285 156.195L133.334 156.166C133.458 156.088 135.753 154.786 135.793 154.59C135.833 154.395 135.833 154.327 135.759 154.156C135.684 153.986 135.477 153.868 135.477 153.868C134.767 153.565 134.033 153.283 133.258 153.278C131.475 153.267 129.529 154.586 128.054 155.484C126.434 156.471 124.944 157.625 123.385 158.695C123.349 158.72 123.309 158.731 123.271 158.731C123.107 158.731 122.954 158.528 123.06 158.369C124.177 156.723 125.686 155.353 127.263 154.156L127.899 153.679C129.344 152.601 131.034 151.408 132.791 151.147C134.944 150.83 137.192 152.173 139.112 152.959L142.513 154.351C143.12 154.599 143.779 154.81 144.389 155.091L142.964 150.63C142.252 148.399 141.542 146.167 140.838 143.934L140.702 143.497C140.001 141.23 139.358 138.872 138.191 136.801C137.912 136.304 137.593 135.837 137.278 135.366C136.951 134.878 136.828 134.339 136.416 133.903C135.601 133.039 134.432 132.532 133.317 132.2C133.044 132.12 133.125 131.76 133.381 131.733C134.525 131.612 135.617 131.879 136.651 132.362L137.081 132.568C138.059 133.031 139.013 133.461 139.739 134.292C141.396 136.19 142.256 138.58 143.046 140.938L143.257 141.571C143.553 141.474 145.562 142.087 145.813 142.233C153.345 145.418 159.147 151.348 163.389 158.297C168.037 165.912 170.568 174.614 172.657 183.224C173.302 185.882 173.919 188.547 174.511 191.219C171.872 192.234 169.066 192.766 166.596 194.197C165.654 194.742 166.505 196.204 167.448 195.657C169.763 194.317 172.399 193.822 174.876 192.88C176.219 199.065 177.414 205.284 178.414 211.528C181.488 230.693 183.43 250.171 183.307 269.599C183.305 270.028 183.178 270.508 182.944 270.92C183.081 270.852 183.189 270.772 183.25 270.675C184.03 269.451 185.984 270.586 185.2 271.816L185.086 271.994C184.497 272.901 183.948 273.595 182.914 274.107C181.873 274.623 180.744 274.709 179.595 274.739C175.689 274.842 171.78 274.909 167.87 274.957C167.333 270.773 167.115 266.548 166.376 262.389C166.187 261.319 164.557 261.772 164.747 262.838C165.46 266.855 165.689 270.933 166.187 274.977C157.827 275.067 149.462 275.068 141.109 275.092C129.788 275.125 118.469 275.102 107.148 275.095L102.297 275.094C89.2192 275.094 76.1416 275.052 63.0643 274.965L59.9542 274.943C58.717 267.647 57.8749 260.289 57.8593 252.874C57.857 251.787 56.1668 251.784 56.1692 252.874C56.1848 260.28 57.0176 267.639 58.2434 274.933C55.147 274.92 52.0522 274.931 48.9556 275.041L47.3796 275.097C44.2262 275.205 41.0665 275.272 37.919 275.02C34.4246 274.739 30.8904 274.096 27.7573 272.45C26.3462 271.707 25.1037 270.758 24.0419 269.641C25.1213 269.013 26.2161 268.41 27.2616 267.726C28.1682 267.132 27.3225 265.668 26.4085 266.266C25.2818 267.004 24.0975 267.646 22.9374 268.328C22.0974 267.207 21.408 265.962 20.8845 264.62C20.0585 262.499 19.7394 260.219 19.4627 257.974C19.1354 255.331 19 252.665 19 250.003C19 244.402 19.5894 238.818 20.4115 233.285C21.1976 227.984 22.2367 222.726 23.3351 217.484L23.4852 216.77C24.569 211.617 25.6021 206.449 26.8444 201.332C27.993 196.601 29.3204 191.892 30.9024 187.273C32.3105 188.144 33.7841 188.906 35.1702 189.814C36.0831 190.411 36.9309 188.948 36.0233 188.354C34.5444 187.386 32.9671 186.581 31.4747 185.635C33.2437 180.69 35.32 175.86 37.8094 171.234C42.7951 161.971 49.5136 153.684 58.1185 147.567C62.4261 144.507 67.1521 142.002 72.115 140.18C77.1749 138.321 82.4183 137.302 87.7803 136.884C87.9334 136.871 88.0193 137.013 88.013 137.144L88.0108 137.169L88.222 137.203C88.3002 136.672 88.4608 136.158 88.7671 135.687C89.4643 134.614 90.7866 133.925 91.843 133.265L92.0934 133.109C93.3502 132.33 94.6765 131.562 96.1382 131.289C96.1889 131.28 96.2204 131.333 96.1866 131.374C95.2227 132.479 93.9901 133.324 92.8604 134.259L92.6008 134.476C91.6646 135.247 90.3587 136.121 90.324 137.41C90.284 138.927 90.5944 140.506 90.7066 142.019C90.8185 143.528 90.8965 145.035 90.9366 146.548C91.0826 151.97 90.9073 157.393 90.4275 162.793L92.5485 161.372C95.8493 159.162 99.161 156.958 102.542 154.888C104.587 153.635 106.885 152.563 109.336 152.612C110.023 152.625 110.798 152.724 111.542 152.936C110.741 152.177 109.974 151.37 109.19 150.607C107.899 149.349 106.608 148.091 105.318 146.836L101.596 143.209L97.8725 139.582C96.7192 138.456 95.3669 137.418 95.4894 135.643C95.589 134.227 97.188 133.162 97.6803 131.796C97.75 131.6 97.8134 131.405 97.8725 131.213C98.8657 127.912 97.8702 124.384 98.878 121.096ZM147.662 262.503C146.892 261.732 145.697 262.927 146.467 263.698L146.875 264.104C147.555 264.783 148.229 265.483 148.7 266.322L148.769 266.449C149.276 267.412 150.736 266.558 150.228 265.595C149.601 264.405 148.603 263.444 147.662 262.503ZM114.677 262.285C112.226 261.817 109.863 261.817 107.413 262.285C106.345 262.489 106.797 264.119 107.862 263.916C110.005 263.506 112.083 263.506 114.227 263.916C115.29 264.119 115.745 262.49 114.677 262.285ZM81.5768 245.242C80.5222 244.974 80.0722 246.605 81.1277 246.872L81.6473 247.003C83.4138 247.439 85.0962 247.765 86.9312 247.359C87.9789 247.128 87.5552 245.537 86.5234 245.72L86.4818 245.729C84.7839 246.104 83.2197 245.658 81.5768 245.242ZM140.361 234.259C139.581 233.5 138.384 234.695 139.166 235.455C140.141 236.404 141.291 237.125 142.684 237.163C143.756 237.193 143.771 235.553 142.732 235.475L142.684 235.473C141.75 235.447 141.006 234.887 140.361 234.259ZM40.8909 229.744C41.864 229.257 41.009 227.798 40.038 228.284L34.1969 231.205C33.2238 231.692 34.0788 233.151 35.0498 232.665L40.8909 229.744ZM156.313 230.116C155.225 230.086 155.226 231.776 156.313 231.807C157.335 231.836 158.383 232.223 159.294 232.665C160.268 233.139 161.126 231.681 160.147 231.205C158.956 230.627 157.649 230.153 156.313 230.116ZM101.736 221.953C102.63 221.345 101.786 219.879 100.883 220.493C99.6508 221.33 98.5345 222.32 97.322 223.182L96.9888 223.414C96.0943 224.022 96.9389 225.488 97.8419 224.874C99.1858 223.961 100.392 222.866 101.736 221.953ZM164.588 209.664C163.5 209.664 163.499 211.354 164.588 211.355L164.794 211.354C165.692 211.349 166.638 211.324 167.473 211.683L167.569 211.726C168.547 212.188 169.406 210.73 168.422 210.267C167.198 209.69 165.918 209.665 164.588 209.664ZM70.7261 208.456L70.8681 208.403C71.8843 208.038 71.4461 206.403 70.4187 206.773C68.8706 207.329 67.6661 208.38 66.3231 209.293C65.4282 209.901 66.2728 211.366 67.176 210.753C68.3332 209.967 69.4098 208.971 70.7261 208.456ZM134.121 204.058L134.349 203.935C135.316 203.437 134.462 201.978 133.496 202.475C132.729 202.87 132.042 203.396 131.29 203.814L131.062 203.936C130.094 204.434 130.948 205.894 131.915 205.396C132.682 205.001 133.368 204.476 134.121 204.058ZM108.409 187.68L108.235 187.512C107.457 186.75 106.261 187.945 107.04 188.708C108.985 190.612 111.284 192.058 113.604 193.456L114.025 193.709C114.96 194.271 115.811 192.809 114.879 192.249L114.259 191.877C112.197 190.633 110.159 189.349 108.409 187.68ZM61.638 186.102C62.2934 185.251 60.8682 184.417 60.2021 185.219L60.1786 185.249C59.4964 186.134 58.6869 186.937 57.8409 187.669L57.6818 187.805C57.1782 188.234 56.2615 189.152 55.5539 189.212C54.4782 189.304 54.4685 190.996 55.5539 190.903C56.6487 190.81 57.5908 190.039 58.4179 189.379C59.6217 188.418 60.6985 187.322 61.638 186.102ZM151.556 179.943C152.342 179.205 151.182 178.03 150.389 178.722L150.361 178.747C148.894 180.126 146.782 180.497 144.893 180.964C143.838 181.226 144.285 182.857 145.342 182.595L146.203 182.382C148.134 181.9 150.071 181.339 151.556 179.943ZM118.084 169.278C117.029 169.009 116.579 170.64 117.635 170.908C119.427 171.364 121.125 171.953 122.787 172.771C123.76 173.249 124.617 171.792 123.64 171.311C121.852 170.431 120.014 169.768 118.084 169.278ZM135.349 133.635C135.324 133.559 135.404 133.472 135.482 133.5C137.379 134.207 136.371 136.692 135.781 138.18L135.675 138.452C134.751 140.836 133.461 143.156 132.054 145.291C130.581 147.525 128.946 149.664 127.176 151.672C126.407 152.543 125.611 153.39 124.787 154.212L124.477 154.518C123.645 155.337 122.572 156.774 121.281 156.615C119.891 156.448 119.115 154.962 120.13 153.834C120.846 153.035 121.839 152.399 122.639 151.672C123.434 150.953 124.203 150.211 124.953 149.448C126.487 147.882 127.94 146.227 129.269 144.484C130.554 142.797 131.784 141.065 132.903 139.263L133.125 138.902C133.976 137.501 135.941 135.44 135.349 133.635ZM68.1495 151.346C67.2491 150.73 66.4028 152.195 67.2964 152.806C68.9397 153.929 70.3854 155.29 72.164 156.214C73.1163 156.709 73.9633 155.291 73.0509 154.773L73.0171 154.754C71.2397 153.831 69.7919 152.469 68.1495 151.346Z" fill="#0C0C0D"/>
<path fill-rule="evenodd" clip-rule="evenodd" d="M134.073 107.947C134.397 107.384 135.143 106.861 135.826 106.941C138.885 107.3 138.88 111.01 137.698 113.176C136.651 115.097 134.484 116.224 132.314 116.059C130.035 115.886 128.094 114.546 127.239 112.413C126.674 111.002 126.413 108.398 127.916 107.45C127.944 107.432 127.99 107.437 128.012 107.462C128.733 108.301 128.761 109.561 129.393 110.495C129.979 111.363 130.891 112.081 131.959 112.191C132.757 112.274 133.564 111.986 133.876 111.27C134.045 110.882 134.026 110.672 133.962 110.405L133.905 110.173C133.705 109.361 133.615 108.743 134.073 107.947ZM134.38 92.1446C136.235 92.7183 139.297 94.2808 138.33 96.6925C136.98 98.9074 133.399 97.2796 131.664 96.564C130.105 96.0474 129.293 98.233 130.8 98.8918C143.257 103.822 143.211 90.811 134.832 91.0021C133.909 91.023 133.88 91.954 134.38 92.1446ZM143.545 86.0051C147.064 85.8403 149.253 89.6839 148.443 92.8332C148.304 93.3766 147.696 93.91 147.109 93.849L146.962 93.8354C146.887 93.8281 146.811 93.8187 146.742 93.7995C146.185 93.6452 145.686 93.0657 145.726 92.465L145.737 92.29C145.819 90.8023 145.658 89.0882 143.891 88.728C142.392 88.4223 141.555 89.8657 141.537 91.1942C141.534 91.4301 141.269 91.5947 141.06 91.4679C139.977 90.8083 139.789 89.496 140.203 88.3659C140.727 86.934 142.04 86.0755 143.545 86.0051ZM115.414 85.2571C117.975 84.4024 120.738 85.7679 121.978 88.0328C122.413 88.1587 122.847 88.4941 122.786 89.0077C122.699 89.7466 122.568 90.2124 122.056 90.7727C121.255 91.6492 119.755 91.2011 119.422 90.1221L119.407 90.0734C119.029 88.6787 117.495 87.7584 116.097 88.2467C114.464 88.8169 114.511 90.5423 113.365 91.5475C113.231 91.6657 113.069 91.6845 112.908 91.6065C111.691 91.0183 111.91 89.248 112.344 88.2348C112.913 86.9052 114.018 85.7227 115.414 85.2571ZM118.757 73.8488L119.189 73.6833C120.669 73.1239 122.701 72.4773 123.905 73.6814C124.647 74.4239 124.788 75.5176 124.259 76.4237C123.616 77.5212 122.465 77.5483 121.353 77.7099C120.088 77.8938 118.801 78.2434 117.624 78.7418C116.297 79.3033 115.066 80.0033 113.86 80.7851C112.714 81.528 111.571 82.7422 110.199 82.9711C110.143 82.9804 110.08 82.9563 110.065 82.8948C109.754 81.5527 110.62 80.232 111.392 79.185C112.327 77.9173 113.46 76.8768 114.727 75.9439C115.949 75.0433 117.345 74.3926 118.757 73.8488ZM145.951 78.0948L146.083 78.0716C146.981 77.9222 147.794 77.9566 148.471 78.6677C148.987 79.2103 149.186 79.9134 148.94 80.6308C148.713 81.2925 148.205 81.9648 147.468 82.1034C144.979 82.5718 142.223 82.4944 139.722 82.1398C138.578 81.9775 137.423 81.7788 136.309 81.4656L135.796 81.3169C134.865 81.051 133.8 80.7732 133.124 80.0886C132.881 79.8426 133.021 79.4905 133.312 79.3766C134.491 78.9146 136.108 79.1604 137.365 79.1243C138.828 79.0824 140.293 78.9727 141.749 78.8216C143.172 78.6737 144.548 78.3522 145.951 78.0948Z" fill="#0C0C0D"/>
<path d="M155.808 85.5085C154.891 85.2612 153.621 84.5468 153 83.6444L153.112 85.8445C153.627 86.5462 154.323 87.0852 155.115 87.4571C156.987 88.3385 159.458 88.3469 160.614 86.356C160.982 85.722 160.363 84.773 159.608 85.0456C158.408 85.4789 157.077 85.8488 155.808 85.5085Z" fill="#0C0C0D"/>
<path fill-rule="evenodd" clip-rule="evenodd" d="M151 71.0448C151.333 67.2115 151.3 57.8448 148.5 51.0448C150.167 50.0448 150 46.7448 136 41.5448C136.5 40.3781 135.6 38.0448 128 38.0448C126.5 36.5448 121.6 34.1448 114 36.5448C111.557 36.6907 108.593 37.1557 105.466 38.0448C105.811 36.7115 102.5 34.5448 102.5 34.5448C102.5 34.5448 110.027 33.4448 108 27.0448C109.667 25.5448 111.7 22.5448 106.5 22.5448C107 21.0448 107.2 18.2448 104 19.0448C106.167 14.2114 107.3 5.24476 94.5001 8.04476C93.1668 6.21143 90.1001 3.94479 88.5001 9.54479C85.8335 8.54479 79.6001 8.0448 76.0001 14.0448C72.6668 13.0448 66 13.1448 66 21.5448C64.8333 21.3781 62.5 21.8448 62.5 25.0448C57.3 24.6448 58.3333 27.5448 59.5 29.0448C58.2999 30.6448 60 32.7115 61 33.5448C57 33.9448 58.3333 36.7115 59.5 38.0448C51.0999 43.2448 56 47.8781 59.5 49.5448C56.3 51.1448 58.1666 52.5448 59.5 53.0448C56.7 60.2448 62.6666 61.3781 66 61.0448C71.6 65.0448 75.0001 60.3781 76.0001 57.5448C76.0001 61.9448 80.288 61.7115 82.432 61.0448C82.025 63.3423 81.8648 65.8375 82.0001 68.5448C84.8335 69.5448 92.6001 70.4448 101 66.0448C111.5 60.5448 131.5 58.0448 148.5 62.0448L151 71.0448ZM99.5 35.5847L102 38.0448C94.1175 40.9178 85.9215 46.5727 82.7831 56.5847L79.5 53.5847C81.5 42.3847 93.6667 36.918 99.5 35.5847Z" fill="#0C0C0D" stroke="#0C0C0D"/>
<path d="M84 69C83.185 67.5805 81.6133 66.0744 81.5 69C81.5 77.3467 66.5 81.5 71.5 82C76.5 82.5 82 77.5 82 77.5C82 77.5 85.1919 74.9597 84 69Z" fill="#0C0C0D"/>
<path d="M84 66.5C83.185 65.0806 81.6134 63.5744 81.5 66.5C81.5 74.8467 70 75 72.5 76C75 77 82.5 73 82.5 73C82.5 73 85.1919 72.4597 84 66.5Z" fill="#0C0C0D"/>
<path d="M87 106.5C87.3333 106 88.9 104.9 90.5 106.5" stroke="#0C0C0D"/>
<path d="M87.4959 106.614L87.5 106.545C87.7809 104.982 88.271 105.015 89.5 106.045C88.9017 109.535 89.5 112.045 88 113.545C87.5253 114.02 87.0488 114.106 86.6038 113.824L86.2003 113.905C86.0032 114.071 85.7722 114.125 85.5 114.045C84.7221 114.179 82.982 112.668 82.5 107.045H84.5C84.8067 110.623 85.5328 112.886 86.4069 113.673C87.1421 112.624 87.3145 109.696 87.4959 106.614Z" fill="#0C0C0D"/>
<path d="M84 105C84 104.5 85.1 103.3 87.5 104.5" stroke="#0C0C0D"/>
<path d="M83.3878 110.952C83.8558 109.66 84.0974 107.393 84.5 105.045C84.7855 102.988 85.3579 103.384 86.5 104.545C85.9017 108.035 86.1589 111.345 85 111.545L82.5331 112.038C82.5221 112.041 82.5111 112.043 82.5 112.045C81.7221 112.179 80.482 111.668 80 106.045H82C82.2408 108.854 82.7957 110.263 83.3878 110.952Z" fill="#0C0C0D"/>
</g>
<circle cx="110" cy="110" r="109.5" stroke="#202020"/>
</svg>
