<svg width="167" height="271" viewBox="0 0 167 271" fill="none" xmlns="http://www.w3.org/2000/svg">
<path fill-rule="evenodd" clip-rule="evenodd" d="M65.2431 91.6445C67.1122 91.7534 68.6958 92.0401 70.3957 92.8581L70.5417 92.9296C72.0438 93.6756 74.5283 95.0536 74.3192 97.0297C74.26 97.5919 73.8523 98.1837 73.21 98.1393C71.4501 98.0189 70.4445 96.2435 69.253 95.136C68.0509 94.0201 66.5741 92.8725 65.1185 92.1053C64.9127 91.9973 64.9937 91.6554 65.2176 91.6444L65.2431 91.6445Z" fill="#0C0C0D"/>
<path d="M77.5 83.6444C76.6667 83.9777 74.5 85.1444 74.5 87.1444C74.5 89.1444 76.5 89.6444 76.5 89.6444C75.7 87.2444 78.1667 85.4777 79 85.1444C80.8333 84.3111 83.8 80.3444 83 71.1444C82 59.6444 82.5 61.6444 86.5 60.6444C90.5 59.6444 104 54.1444 129 58.1444C129.789 56.6881 130.386 55.8177 127.5 55.6444C102.5 51.6444 89.5 57.6444 85.5 58.6444C81.5 59.6444 80 58.6444 81 70.1444C81.8 79.3444 79.3333 82.811 77.5 83.6444Z" fill="#0C0C0D"/>
<path d="M120.153 123.667C122.653 122.667 128.309 116.468 131.153 110.644C133.998 104.821 134.5 102.996 134.5 101.644C134.5 100.293 132.153 88.6667 131.153 77.1667C130.63 71.1444 130 65.6444 128.5 60.1444C127.853 57.9587 129.03 57.0078 130 57.1444C130.97 57.281 133.493 70.9498 134 77.1667C135.727 90.5943 137.42 98.9468 137.153 102.667C137.046 104.164 135.918 108.302 133.153 112.667C129.01 119.385 123.153 125.167 121.153 125.667C120.049 125.943 114.922 127.028 109.153 127.183C104.474 127.309 96.1534 125.667 95.6534 124.794C95.1534 123.922 94.1534 121.667 96.6534 122.667C99.1534 123.667 104.619 124.635 109 124.644C114.079 124.655 118.811 124.204 120.153 123.667Z" fill="#0C0C0D"/>
<path d="M64 89.6444C66.6449 87.0802 71 88.1444 71 88.1444C73.3087 88.8016 75.5 92.1444 75.5 92.1444C76.5268 93.9904 76.7461 95.892 77.5 96.1444C78.2539 96.3967 77.7052 91.8024 76.9999 90.1444C76.2947 88.4863 74.7954 86.0837 69 85.6444C66.5881 85.4616 65.2554 85.762 62.9999 87.1444C61.9999 87.6444 59.491 89.6429 59 92.6444C58.285 97.0145 59.6655 100.815 62 103.144C64.5 105.144 65.9999 105.144 68.9999 105.644C69.9863 105.809 70.4652 106.739 70.9999 107.644C73.9999 113.644 74.4999 114.144 79.4999 118.144C81.4999 119.144 82.1035 119.682 83.4999 118.644C83.9999 117.644 82.4999 116.644 82.4999 116.644C82.4999 116.644 74.1808 110.338 71.9999 103.144C63.0315 104.304 59.174 95.2156 64 89.6444Z" fill="#0C0C0D"/>
<path d="M63.5 63.5448C62.7 73.1448 64.5 82.8781 65.5 86.5448H67C66 82.8781 64.2 73.1448 65 63.5448H63.5Z" fill="#0C0C0D" stroke="#0C0C0D"/>
<path fill-rule="evenodd" clip-rule="evenodd" d="M79.878 116.096C79.9815 115.757 80.4275 115.853 80.4613 116.174C80.7972 119.361 81.9056 122.702 81.5 125.869C81.3056 127.397 80.343 128.737 80.0472 130.243C80.0092 130.404 79.9733 130.567 79.9394 130.727C80.0366 130.901 80.3242 131.095 80.4613 131.228L81.0577 131.808L82.2528 132.966C84.5918 135.231 86.9303 137.499 89.269 139.765L92.7021 143.094C93.8791 144.235 95.2164 145.328 96.2493 146.6C96.8094 147.291 96.9359 148.138 96.3845 148.878C96.112 149.244 95.622 149.51 95.1254 149.565C95.3197 149.835 95.4697 150.142 95.5648 150.482C95.7592 151.176 95.058 152.027 94.3122 151.738C93.465 151.412 92.7655 150.829 91.9035 150.55C91.0331 150.267 90.0868 150.212 89.1845 150.364C88.7704 150.434 88.3648 150.537 87.9697 150.668C92.1974 152.615 96.7711 153.733 101.436 153.893C102.387 153.925 103.335 153.912 104.28 153.849C105.869 153.745 107.446 153.505 108.997 153.116C110.216 152.809 111.423 152.424 112.593 151.959C113.168 151.731 113.736 151.48 114.285 151.195L114.334 151.166C114.458 151.088 116.753 149.786 116.793 149.59C116.833 149.395 116.833 149.327 116.759 149.156C116.684 148.986 116.477 148.868 116.477 148.868C115.767 148.565 115.033 148.283 114.258 148.278C112.475 148.267 110.529 149.586 109.054 150.484C107.434 151.471 105.944 152.625 104.385 153.695C104.349 153.72 104.309 153.731 104.271 153.731C104.107 153.731 103.954 153.528 104.06 153.369C105.177 151.723 106.686 150.353 108.263 149.156L108.899 148.679C110.344 147.601 112.034 146.408 113.791 146.147C115.944 145.83 118.192 147.173 120.112 147.959L123.513 149.351C124.12 149.599 124.779 149.81 125.389 150.091L123.964 145.63C123.252 143.399 122.542 141.167 121.838 138.934L121.702 138.497C121.001 136.23 120.358 133.872 119.191 131.801C118.912 131.304 118.593 130.837 118.278 130.366C117.951 129.878 117.828 129.339 117.416 128.903C116.601 128.039 115.432 127.532 114.317 127.2C114.044 127.12 114.125 126.76 114.381 126.733C115.525 126.612 116.617 126.879 117.651 127.362L118.081 127.568C119.059 128.031 120.013 128.461 120.739 129.292C122.396 131.19 123.256 133.58 124.046 135.938L124.257 136.571C124.553 136.474 126.562 137.087 126.813 137.233C134.345 140.418 140.147 146.348 144.389 153.297C149.037 160.912 151.568 169.614 153.657 178.224C154.302 180.882 154.919 183.547 155.511 186.219C152.872 187.234 150.066 187.766 147.596 189.197C146.654 189.742 147.505 191.204 148.448 190.657C150.763 189.317 153.399 188.822 155.876 187.88C157.219 194.065 158.414 200.284 159.414 206.528C162.488 225.693 164.43 245.171 164.307 264.599C164.305 265.028 164.178 265.508 163.944 265.92C164.081 265.852 164.189 265.772 164.25 265.675C165.03 264.451 166.984 265.586 166.2 266.816L166.086 266.994C165.497 267.901 164.948 268.595 163.914 269.107C162.873 269.623 161.744 269.709 160.595 269.739C156.689 269.842 152.78 269.909 148.87 269.957C148.333 265.773 148.115 261.548 147.376 257.389C147.187 256.319 145.557 256.772 145.747 257.838C146.46 261.855 146.689 265.933 147.187 269.977C138.827 270.067 130.462 270.068 122.109 270.092C110.788 270.125 99.4686 270.102 88.1483 270.095L83.2967 270.094C70.2192 270.094 57.1416 270.052 44.0643 269.965L40.9542 269.943C39.717 262.647 38.8749 255.289 38.8593 247.874C38.857 246.787 37.1668 246.784 37.1692 247.874C37.1848 255.28 38.0176 262.639 39.2434 269.933C36.147 269.92 33.0522 269.931 29.9556 270.041L28.3796 270.097C25.2262 270.205 22.0665 270.272 18.919 270.02C15.4246 269.739 11.8904 269.096 8.75725 267.45C7.3462 266.707 6.10373 265.758 5.0419 264.641C6.12127 264.013 7.21606 263.41 8.26162 262.726C9.16817 262.132 8.32247 260.668 7.40852 261.266C6.28183 262.004 5.09747 262.646 3.93739 263.328C3.09739 262.207 2.40803 260.962 1.88451 259.62C1.05845 257.499 0.739437 255.219 0.462676 252.974C0.135423 250.331 0 247.665 0 245.003C0 239.402 0.589437 233.818 1.41148 228.285C2.19758 222.984 3.2367 217.726 4.33508 212.484L4.48521 211.77C5.56901 206.617 6.60211 201.449 7.84437 196.332C8.99303 191.601 10.3204 186.892 11.9024 182.273C13.3105 183.144 14.7841 183.906 16.1702 184.814C17.0831 185.411 17.9309 183.948 17.0233 183.354C15.5444 182.386 13.9671 181.581 12.4747 180.635C14.2437 175.69 16.32 170.86 18.8094 166.234C23.7951 156.971 30.5136 148.684 39.1185 142.567C43.4261 139.507 48.1521 137.002 53.115 135.18C58.1749 133.321 63.4183 132.302 68.7803 131.884C68.9334 131.871 69.0193 132.013 69.013 132.144L69.0108 132.169L69.222 132.203C69.3002 131.672 69.4608 131.158 69.7671 130.687C70.4643 129.614 71.7866 128.925 72.843 128.265L73.0934 128.109C74.3502 127.33 75.6765 126.562 77.1382 126.289C77.1889 126.28 77.2204 126.333 77.1866 126.374C76.2227 127.479 74.9901 128.324 73.8604 129.259L73.6008 129.476C72.6646 130.247 71.3587 131.121 71.324 132.41C71.284 133.927 71.5944 135.506 71.7066 137.019C71.8185 138.528 71.8965 140.035 71.9366 141.548C72.0826 146.97 71.9073 152.393 71.4275 157.793L73.5485 156.372C76.8493 154.162 80.161 151.958 83.5416 149.888C85.5868 148.635 87.8854 147.563 90.3359 147.612C91.0225 147.625 91.7979 147.724 92.5418 147.936C91.7411 147.177 90.9742 146.37 90.1904 145.607C88.8993 144.349 87.6085 143.091 86.3178 141.836L82.5959 138.209L78.8725 134.582C77.7192 133.456 76.3669 132.418 76.4894 130.643C76.589 129.227 78.188 128.162 78.6803 126.796C78.75 126.6 78.8134 126.405 78.8725 126.213C79.8657 122.912 78.8702 119.384 79.878 116.096ZM128.662 257.503C127.892 256.732 126.697 257.927 127.467 258.698L127.875 259.104C128.555 259.783 129.229 260.483 129.7 261.322L129.769 261.449C130.276 262.412 131.736 261.558 131.228 260.595C130.601 259.405 129.603 258.444 128.662 257.503ZM95.6766 257.285C93.2256 256.817 90.8634 256.817 88.4125 257.285C87.3454 257.489 87.7973 259.119 88.8619 258.916C91.0054 258.506 93.0835 258.506 95.2272 258.916C96.2901 259.119 96.7454 257.49 95.6766 257.285ZM62.5768 240.242C61.5222 239.974 61.0722 241.605 62.1277 241.872L62.6473 242.003C64.4138 242.439 66.0962 242.765 67.9312 242.359C68.9789 242.128 68.5552 240.537 67.5234 240.72L67.4818 240.729C65.7839 241.104 64.2197 240.658 62.5768 240.242ZM121.361 229.259C120.581 228.5 119.384 229.695 120.166 230.455C121.141 231.404 122.291 232.125 123.684 232.163C124.756 232.193 124.771 230.553 123.732 230.475L123.684 230.473C122.75 230.447 122.006 229.887 121.361 229.259ZM21.8909 224.744C22.864 224.257 22.009 222.798 21.038 223.284L15.1969 226.205C14.2238 226.692 15.0788 228.151 16.0498 227.665L21.8909 224.744ZM137.313 225.116C136.225 225.086 136.226 226.776 137.313 226.807C138.335 226.836 139.383 227.223 140.294 227.665C141.268 228.139 142.126 226.681 141.147 226.205C139.956 225.627 138.649 225.153 137.313 225.116ZM82.736 216.953C83.6305 216.345 82.7859 214.879 81.8829 215.493C80.6508 216.33 79.5345 217.32 78.322 218.182L77.9888 218.414C77.0943 219.022 77.9389 220.488 78.8419 219.874C80.1858 218.961 81.3921 217.866 82.736 216.953ZM145.588 204.664C144.5 204.664 144.499 206.354 145.588 206.355L145.794 206.354C146.692 206.349 147.638 206.324 148.473 206.683L148.569 206.726C149.547 207.188 150.406 205.73 149.422 205.267C148.198 204.69 146.918 204.665 145.588 204.664ZM51.7261 203.456L51.8681 203.403C52.8843 203.038 52.4461 201.403 51.4187 201.773C49.8706 202.329 48.6661 203.38 47.3231 204.293C46.4282 204.901 47.2728 206.366 48.176 205.753C49.3332 204.967 50.4098 203.971 51.7261 203.456ZM115.121 199.058L115.349 198.935C116.316 198.437 115.462 196.978 114.496 197.475C113.729 197.87 113.042 198.396 112.29 198.814L112.062 198.936C111.094 199.434 111.948 200.894 112.915 200.396C113.682 200.001 114.368 199.476 115.121 199.058ZM89.4088 182.68L89.2348 182.512C88.4569 181.75 87.2609 182.945 88.0396 183.708C89.9846 185.612 92.2839 187.058 94.6035 188.456L95.0254 188.709C95.9603 189.271 96.8111 187.809 95.8785 187.249L95.2594 186.877C93.197 185.633 91.1588 184.349 89.4088 182.68ZM42.638 181.102C43.2934 180.251 41.8682 179.417 41.2021 180.219L41.1786 180.249C40.4964 181.134 39.6869 181.937 38.8409 182.669L38.6818 182.805C38.1782 183.234 37.2615 184.152 36.5539 184.212C35.4782 184.304 35.4685 185.996 36.5539 185.903C37.6487 185.81 38.5908 185.039 39.4179 184.379C40.6217 183.418 41.6985 182.322 42.638 181.102ZM132.556 174.943C133.342 174.205 132.182 173.03 131.389 173.722L131.361 173.747C129.894 175.126 127.782 175.497 125.893 175.964C124.838 176.226 125.285 177.857 126.342 177.595L127.203 177.382C129.134 176.9 131.071 176.339 132.556 174.943ZM99.0839 164.278C98.0292 164.009 97.5792 165.64 98.6347 165.908C100.427 166.364 102.125 166.953 103.787 167.771C104.76 168.249 105.617 166.792 104.64 166.311C102.852 165.431 101.014 164.768 99.0839 164.278ZM116.349 128.635C116.324 128.559 116.404 128.472 116.482 128.5C118.379 129.207 117.371 131.692 116.781 133.18L116.675 133.452C115.751 135.836 114.461 138.156 113.054 140.291C111.581 142.525 109.946 144.664 108.176 146.672C107.407 147.543 106.611 148.39 105.787 149.212L105.477 149.518C104.645 150.337 103.572 151.774 102.281 151.615C100.891 151.448 100.115 149.962 101.13 148.834C101.846 148.035 102.839 147.399 103.639 146.672C104.434 145.953 105.203 145.211 105.953 144.448C107.487 142.882 108.94 141.227 110.269 139.484C111.554 137.797 112.784 136.065 113.903 134.263L114.125 133.902C114.976 132.501 116.941 130.44 116.349 128.635ZM49.1495 146.346C48.2491 145.73 47.4028 147.195 48.2964 147.806C49.9397 148.929 51.3854 150.29 53.164 151.214C54.1163 151.709 54.9633 150.291 54.0509 149.773L54.0171 149.754C52.2397 148.831 50.7919 147.469 49.1495 146.346Z" fill="#0C0C0D"/>
<path fill-rule="evenodd" clip-rule="evenodd" d="M115.073 102.947C115.397 102.384 116.143 101.861 116.826 101.941C119.885 102.3 119.88 106.01 118.698 108.176C117.651 110.097 115.484 111.224 113.314 111.059C111.035 110.886 109.094 109.546 108.239 107.413C107.674 106.002 107.413 103.398 108.916 102.45C108.944 102.432 108.99 102.437 109.012 102.462C109.733 103.301 109.761 104.561 110.393 105.495C110.979 106.363 111.891 107.081 112.959 107.191C113.757 107.274 114.564 106.986 114.876 106.27C115.045 105.882 115.026 105.672 114.962 105.405L114.905 105.173C114.705 104.361 114.615 103.743 115.073 102.947ZM115.38 87.1446C117.235 87.7182 120.297 89.2808 119.33 91.6925C117.98 93.9074 114.399 92.2796 112.664 91.564C111.105 91.0474 110.293 93.233 111.8 93.8918C124.257 98.8215 124.211 85.811 115.832 86.0021C114.909 86.023 114.88 86.954 115.38 87.1446ZM124.545 81.0051C128.064 80.8403 130.253 84.6839 129.443 87.8332C129.304 88.3766 128.696 88.91 128.109 88.849L127.962 88.8354C127.887 88.8281 127.811 88.8187 127.742 88.7995C127.185 88.6452 126.686 88.0657 126.726 87.465L126.737 87.29C126.819 85.8023 126.658 84.0882 124.891 83.728C123.392 83.4223 122.555 84.8657 122.537 86.1942C122.534 86.4301 122.269 86.5947 122.06 86.4679C120.977 85.8083 120.789 84.496 121.203 83.3659C121.727 81.934 123.04 81.0755 124.545 81.0051ZM96.4141 80.2571C98.9749 79.4024 101.738 80.7679 102.978 83.0328C103.413 83.1587 103.847 83.4941 103.786 84.0077C103.699 84.7466 103.568 85.2124 103.056 85.7727C102.255 86.6492 100.755 86.2011 100.422 85.1221L100.407 85.0734C100.029 83.6787 98.4946 82.7584 97.0967 83.2467C95.4636 83.8169 95.5109 85.5423 94.3654 86.5475C94.2308 86.6657 94.0694 86.6845 93.908 86.6065C92.6913 86.0183 92.91 84.248 93.3437 83.2348C93.9127 81.9052 95.0185 80.7227 96.4141 80.2571ZM99.7569 68.8488L100.189 68.6833C101.669 68.1239 103.701 67.4773 104.905 68.6814C105.647 69.4239 105.788 70.5176 105.259 71.4237C104.616 72.5212 103.465 72.5483 102.353 72.7099C101.088 72.8938 99.8015 73.2434 98.6239 73.7418C97.2973 74.3033 96.0663 75.0033 94.8602 75.7851C93.7138 76.528 92.5715 77.7422 91.1993 77.9711C91.1433 77.9804 91.0797 77.9563 91.0652 77.8948C90.7535 76.5527 91.6195 75.232 92.3923 74.185C93.3274 72.9173 94.4604 71.8768 95.7268 70.9439C96.949 70.0433 98.3454 69.3926 99.7569 68.8488ZM126.951 73.0948L127.083 73.0716C127.981 72.9222 128.794 72.9566 129.471 73.6677C129.987 74.2103 130.186 74.9134 129.94 75.6308C129.713 76.2925 129.205 76.9648 128.468 77.1034C125.979 77.5718 123.223 77.4944 120.722 77.1398C119.578 76.9775 118.423 76.7788 117.309 76.4656L116.796 76.3169C115.865 76.051 114.8 75.7732 114.124 75.0886C113.881 74.8426 114.021 74.4905 114.312 74.3766C115.491 73.9146 117.108 74.1604 118.365 74.1243C119.828 74.0824 121.293 73.9727 122.749 73.8216C124.172 73.6737 125.548 73.3522 126.951 73.0948Z" fill="#0C0C0D"/>
<path d="M136.808 80.5085C135.891 80.2612 134.621 79.5468 134 78.6444L134.112 80.8445C134.627 81.5462 135.323 82.0852 136.115 82.4571C137.987 83.3385 140.458 83.3469 141.614 81.356C141.982 80.722 141.363 79.773 140.608 80.0456C139.408 80.4789 138.077 80.8488 136.808 80.5085Z" fill="#0C0C0D"/>
<path fill-rule="evenodd" clip-rule="evenodd" d="M132 66.0448C132.333 62.2115 132.3 52.8448 129.5 46.0448C131.167 45.0448 131 41.7448 117 36.5448C117.5 35.3781 116.6 33.0448 109 33.0448C107.5 31.5448 102.6 29.1448 95.0001 31.5448C92.5567 31.6907 89.593 32.1557 86.4662 33.0448C86.8108 31.7115 83.5001 29.5448 83.5001 29.5448C83.5001 29.5448 91.0273 28.4448 89.0001 22.0448C90.6668 20.5448 92.7001 17.5448 87.5001 17.5448C88.0001 16.0448 88.2001 13.2448 85.0001 14.0448C87.1668 9.21144 88.3001 0.244759 75.5001 3.04476C74.1668 1.21143 71.1001 -1.05521 69.5001 4.54479C66.8335 3.54479 60.6001 3.0448 57.0001 9.0448C53.6668 8.0448 47 8.1448 47 16.5448C45.8333 16.3781 43.5 16.8448 43.5 20.0448C38.3 19.6448 39.3333 22.5448 40.5 24.0448C39.2999 25.6448 41 27.7115 42 28.5448C38 28.9448 39.3333 31.7115 40.5 33.0448C32.0999 38.2448 37 42.8781 40.5 44.5448C37.3 46.1448 39.1666 47.5448 40.5 48.0448C37.7 55.2448 43.6666 56.3781 47 56.0448C52.6 60.0448 56.0001 55.3781 57.0001 52.5448C57.0001 56.9448 61.288 56.7115 63.432 56.0448C63.025 58.3423 62.8648 60.8375 63.0001 63.5448C65.8335 64.5448 73.6001 65.4448 82.0001 61.0448C92.5001 55.5448 112.5 53.0448 129.5 57.0448L132 66.0448ZM80.5 30.5847L83 33.0448C75.1175 35.9178 66.9215 41.5727 63.7831 51.5847L60.5 48.5847C62.5 37.3847 74.6667 31.918 80.5 30.5847Z" fill="#0C0C0D" stroke="#0C0C0D"/>
<path d="M65 64C64.185 62.5805 62.6133 61.0744 62.5 64C62.5 72.3467 47.5 76.5 52.5 77C57.5 77.5 63 72.5 63 72.5C63 72.5 66.1919 69.9597 65 64Z" fill="#0C0C0D"/>
<path d="M65 61.5C64.185 60.0806 62.6134 58.5744 62.5 61.5C62.5 69.8467 51 70 53.5 71C56 72 63.5 68 63.5 68C63.5 68 66.1919 67.4597 65 61.5Z" fill="#0C0C0D"/>
<path d="M68 101.5C68.3333 101 69.9 99.9 71.5 101.5" stroke="#0C0C0D"/>
<path d="M68.4959 101.614L68.5 101.545C68.7809 99.9815 69.271 100.015 70.5 101.045C69.9017 104.535 70.5 107.045 69 108.545C68.5253 109.02 68.0488 109.106 67.6038 108.824L67.2003 108.905C67.0032 109.071 66.7722 109.125 66.5 109.045C65.7221 109.179 63.982 107.668 63.5 102.045H65.5C65.8067 105.623 66.5328 107.886 67.4069 108.673C68.1421 107.624 68.3145 104.696 68.4959 101.614Z" fill="#0C0C0D"/>
<path d="M65 100C65 99.5 66.1 98.3 68.5 99.5" stroke="#0C0C0D"/>
<path d="M64.3878 105.952C64.8558 104.66 65.0974 102.393 65.5 100.045C65.7855 97.9879 66.3579 98.3839 67.5 99.5448C66.9017 103.035 67.1589 106.345 66 106.545L63.5331 107.038C63.5221 107.041 63.5111 107.043 63.5 107.045C62.7221 107.179 61.482 106.668 61 101.045H63C63.2408 103.854 63.7957 105.263 64.3878 105.952Z" fill="#0C0C0D"/>
</svg>
