<svg width="256" height="256" viewBox="0 0 256 256" fill="none" xmlns="http://www.w3.org/2000/svg">
<g clip-path="url(#clip0_121_125)">
<path d="M186 64H70C66.6863 64 64 66.6863 64 70V186C64 189.314 66.6863 192 70 192H186C189.314 192 192 189.314 192 186V70C192 66.6863 189.314 64 186 64Z" fill="#3178C6"/>
<path fill-rule="evenodd" clip-rule="evenodd" d="M138.262 163.468V177.494C140.535 178.662 143.222 179.539 146.325 180.123C149.427 180.708 152.698 181 156.135 181C159.486 181 162.668 180.679 165.683 180.036C168.699 179.393 171.342 178.334 173.615 176.858C175.887 175.382 177.686 173.454 179.012 171.072C180.337 168.691 181 165.747 181 162.241C181 159.699 180.621 157.471 179.864 155.557C179.106 153.643 178.014 151.941 176.586 150.45C175.159 148.96 173.447 147.623 171.452 146.44C169.456 145.257 167.206 144.139 164.7 143.087C162.865 142.327 161.219 141.589 159.762 140.874C158.305 140.158 157.067 139.427 156.048 138.682C155.028 137.937 154.242 137.148 153.688 136.315C153.135 135.483 152.858 134.54 152.858 133.488C152.858 132.524 153.105 131.655 153.601 130.88C154.096 130.106 154.795 129.441 155.698 128.886C156.601 128.331 157.708 127.9 159.019 127.593C160.33 127.286 161.787 127.133 163.389 127.133C164.555 127.133 165.785 127.221 167.082 127.396C168.378 127.571 169.682 127.841 170.993 128.207C172.304 128.572 173.578 129.032 174.817 129.587C176.055 130.143 177.198 130.785 178.247 131.516V118.411C176.12 117.593 173.797 116.986 171.277 116.592C168.757 116.197 165.866 116 162.603 116C159.282 116 156.135 116.358 153.164 117.074C150.192 117.79 147.577 118.907 145.32 120.427C143.062 121.946 141.277 123.882 139.966 126.234C138.655 128.586 138 131.399 138 134.672C138 138.85 139.202 142.415 141.605 145.366C144.009 148.317 147.658 150.816 152.552 152.861C154.475 153.65 156.266 154.424 157.927 155.184C159.587 155.944 161.022 156.733 162.231 157.551C163.44 158.369 164.394 159.26 165.093 160.225C165.793 161.189 166.142 162.285 166.142 163.512C166.142 164.418 165.924 165.258 165.487 166.032C165.05 166.806 164.387 167.478 163.498 168.048C162.61 168.618 161.503 169.064 160.177 169.385C158.852 169.706 157.3 169.867 155.523 169.867C152.493 169.867 149.493 169.334 146.521 168.267C143.55 167.201 140.797 165.601 138.262 163.468ZM114.703 128.554H133V117H82V128.554H100.208V180H114.703V128.554Z" fill="#F8F8F8"/>
</g>
<defs>
<clipPath id="clip0_121_125">
<rect x="64" y="64" width="128" height="128" rx="18" fill="white"/>
</clipPath>
</defs>
</svg>
